G04 #@! TF.GenerationSoftware,KiCad,Pcbnew,(5.1.4)-1*
G04 #@! TF.CreationDate,2019-11-15T12:49:53-05:00*
G04 #@! TF.ProjectId,ffb,6666622e-6b69-4636-9164-5f7063625858,rev?*
G04 #@! TF.SameCoordinates,Original*
G04 #@! TF.FileFunction,Soldermask,Top*
G04 #@! TF.FilePolarity,Negative*
%FSLAX46Y46*%
G04 Gerber Fmt 4.6, Leading zero omitted, Abs format (unit mm)*
G04 Created by KiCad (PCBNEW (5.1.4)-1) date 2019-11-15 12:49:53*
%MOMM*%
%LPD*%
G04 APERTURE LIST*
%ADD10C,0.100000*%
G04 APERTURE END LIST*
D10*
G36*
X53642585Y-134368802D02*
G01*
X53792410Y-134398604D01*
X54074674Y-134515521D01*
X54328705Y-134685259D01*
X54544741Y-134901295D01*
X54714479Y-135155326D01*
X54831396Y-135437590D01*
X54891000Y-135737240D01*
X54891000Y-136042760D01*
X54831396Y-136342410D01*
X54714479Y-136624674D01*
X54544741Y-136878705D01*
X54328705Y-137094741D01*
X54074674Y-137264479D01*
X53792410Y-137381396D01*
X53642585Y-137411198D01*
X53492761Y-137441000D01*
X53187239Y-137441000D01*
X53037415Y-137411198D01*
X52887590Y-137381396D01*
X52605326Y-137264479D01*
X52351295Y-137094741D01*
X52135259Y-136878705D01*
X51965521Y-136624674D01*
X51848604Y-136342410D01*
X51789000Y-136042760D01*
X51789000Y-135737240D01*
X51848604Y-135437590D01*
X51965521Y-135155326D01*
X52135259Y-134901295D01*
X52351295Y-134685259D01*
X52605326Y-134515521D01*
X52887590Y-134398604D01*
X53037415Y-134368802D01*
X53187239Y-134339000D01*
X53492761Y-134339000D01*
X53642585Y-134368802D01*
X53642585Y-134368802D01*
G37*
G36*
X176832585Y-131828802D02*
G01*
X176982410Y-131858604D01*
X177264674Y-131975521D01*
X177518705Y-132145259D01*
X177734741Y-132361295D01*
X177904479Y-132615326D01*
X178021396Y-132897590D01*
X178081000Y-133197240D01*
X178081000Y-133502760D01*
X178021396Y-133802410D01*
X177904479Y-134084674D01*
X177734741Y-134338705D01*
X177518705Y-134554741D01*
X177264674Y-134724479D01*
X176982410Y-134841396D01*
X176832585Y-134871198D01*
X176682761Y-134901000D01*
X176377239Y-134901000D01*
X176227415Y-134871198D01*
X176077590Y-134841396D01*
X175795326Y-134724479D01*
X175541295Y-134554741D01*
X175325259Y-134338705D01*
X175155521Y-134084674D01*
X175038604Y-133802410D01*
X174979000Y-133502760D01*
X174979000Y-133197240D01*
X175038604Y-132897590D01*
X175155521Y-132615326D01*
X175325259Y-132361295D01*
X175541295Y-132145259D01*
X175795326Y-131975521D01*
X176077590Y-131858604D01*
X176227415Y-131828802D01*
X176377239Y-131799000D01*
X176682761Y-131799000D01*
X176832585Y-131828802D01*
X176832585Y-131828802D01*
G37*
G36*
X155064071Y-127524063D02*
G01*
X155260300Y-127583589D01*
X155441146Y-127680253D01*
X155482437Y-127714140D01*
X155599660Y-127810340D01*
X155729748Y-127968855D01*
X155826410Y-128149697D01*
X155826411Y-128149699D01*
X155885937Y-128345928D01*
X155901000Y-128498868D01*
X155901000Y-130581132D01*
X155885937Y-130734072D01*
X155826411Y-130930301D01*
X155826410Y-130930303D01*
X155729748Y-131111145D01*
X155599660Y-131269660D01*
X155441145Y-131399748D01*
X155260303Y-131496410D01*
X155260301Y-131496411D01*
X155064072Y-131555937D01*
X154860000Y-131576036D01*
X154655929Y-131555937D01*
X154459700Y-131496411D01*
X154459698Y-131496410D01*
X154278856Y-131399748D01*
X154120341Y-131269660D01*
X153990253Y-131111145D01*
X153893591Y-130930303D01*
X153893590Y-130930301D01*
X153834064Y-130734072D01*
X153819001Y-130581132D01*
X153819000Y-128498869D01*
X153834063Y-128345929D01*
X153893589Y-128149700D01*
X153990253Y-127968854D01*
X154024140Y-127927563D01*
X154120340Y-127810340D01*
X154278855Y-127680252D01*
X154459697Y-127583590D01*
X154459699Y-127583589D01*
X154655928Y-127524063D01*
X154860000Y-127503964D01*
X155064071Y-127524063D01*
X155064071Y-127524063D01*
G37*
G36*
X97914071Y-127524063D02*
G01*
X98110300Y-127583589D01*
X98291146Y-127680253D01*
X98332437Y-127714140D01*
X98449660Y-127810340D01*
X98579748Y-127968855D01*
X98676410Y-128149697D01*
X98676411Y-128149699D01*
X98735937Y-128345928D01*
X98751000Y-128498868D01*
X98751000Y-130581132D01*
X98735937Y-130734072D01*
X98676411Y-130930301D01*
X98676410Y-130930303D01*
X98579748Y-131111145D01*
X98449660Y-131269660D01*
X98291145Y-131399748D01*
X98110303Y-131496410D01*
X98110301Y-131496411D01*
X97914072Y-131555937D01*
X97710000Y-131576036D01*
X97505929Y-131555937D01*
X97309700Y-131496411D01*
X97309698Y-131496410D01*
X97128856Y-131399748D01*
X96970341Y-131269660D01*
X96840253Y-131111145D01*
X96743591Y-130930303D01*
X96743590Y-130930301D01*
X96684064Y-130734072D01*
X96669001Y-130581132D01*
X96669000Y-128498869D01*
X96684063Y-128345929D01*
X96743589Y-128149700D01*
X96840253Y-127968854D01*
X96874140Y-127927563D01*
X96970340Y-127810340D01*
X97128855Y-127680252D01*
X97309697Y-127583590D01*
X97309699Y-127583589D01*
X97505928Y-127524063D01*
X97710000Y-127503964D01*
X97914071Y-127524063D01*
X97914071Y-127524063D01*
G37*
G36*
X137284071Y-127524063D02*
G01*
X137480300Y-127583589D01*
X137661146Y-127680253D01*
X137702437Y-127714140D01*
X137819660Y-127810340D01*
X137949748Y-127968855D01*
X138046410Y-128149697D01*
X138046411Y-128149699D01*
X138105937Y-128345928D01*
X138121000Y-128498868D01*
X138121000Y-130581132D01*
X138105937Y-130734072D01*
X138046411Y-130930301D01*
X138046410Y-130930303D01*
X137949748Y-131111145D01*
X137819660Y-131269660D01*
X137661145Y-131399748D01*
X137480303Y-131496410D01*
X137480301Y-131496411D01*
X137284072Y-131555937D01*
X137080000Y-131576036D01*
X136875929Y-131555937D01*
X136679700Y-131496411D01*
X136679698Y-131496410D01*
X136498856Y-131399748D01*
X136340341Y-131269660D01*
X136210253Y-131111145D01*
X136113591Y-130930303D01*
X136113590Y-130930301D01*
X136054064Y-130734072D01*
X136039001Y-130581132D01*
X136039000Y-128498869D01*
X136054063Y-128345929D01*
X136113589Y-128149700D01*
X136210253Y-127968854D01*
X136244140Y-127927563D01*
X136340340Y-127810340D01*
X136498855Y-127680252D01*
X136679697Y-127583590D01*
X136679699Y-127583589D01*
X136875928Y-127524063D01*
X137080000Y-127503964D01*
X137284071Y-127524063D01*
X137284071Y-127524063D01*
G37*
G36*
X116964071Y-127524063D02*
G01*
X117160300Y-127583589D01*
X117341146Y-127680253D01*
X117382437Y-127714140D01*
X117499660Y-127810340D01*
X117629748Y-127968855D01*
X117726410Y-128149697D01*
X117726411Y-128149699D01*
X117785937Y-128345928D01*
X117801000Y-128498868D01*
X117801000Y-130581132D01*
X117785937Y-130734072D01*
X117726411Y-130930301D01*
X117726410Y-130930303D01*
X117629748Y-131111145D01*
X117499660Y-131269660D01*
X117341145Y-131399748D01*
X117160303Y-131496410D01*
X117160301Y-131496411D01*
X116964072Y-131555937D01*
X116760000Y-131576036D01*
X116555929Y-131555937D01*
X116359700Y-131496411D01*
X116359698Y-131496410D01*
X116178856Y-131399748D01*
X116020341Y-131269660D01*
X115890253Y-131111145D01*
X115793591Y-130930303D01*
X115793590Y-130930301D01*
X115734064Y-130734072D01*
X115719001Y-130581132D01*
X115719000Y-128498869D01*
X115734063Y-128345929D01*
X115793589Y-128149700D01*
X115890253Y-127968854D01*
X115924140Y-127927563D01*
X116020340Y-127810340D01*
X116178855Y-127680252D01*
X116359697Y-127583590D01*
X116359699Y-127583589D01*
X116555928Y-127524063D01*
X116760000Y-127503964D01*
X116964071Y-127524063D01*
X116964071Y-127524063D01*
G37*
G36*
X133121000Y-131571000D02*
G01*
X131039000Y-131571000D01*
X131039000Y-127509000D01*
X133121000Y-127509000D01*
X133121000Y-131571000D01*
X133121000Y-131571000D01*
G37*
G36*
X93751000Y-131571000D02*
G01*
X91669000Y-131571000D01*
X91669000Y-127509000D01*
X93751000Y-127509000D01*
X93751000Y-131571000D01*
X93751000Y-131571000D01*
G37*
G36*
X150901000Y-131571000D02*
G01*
X148819000Y-131571000D01*
X148819000Y-127509000D01*
X150901000Y-127509000D01*
X150901000Y-131571000D01*
X150901000Y-131571000D01*
G37*
G36*
X112801000Y-131571000D02*
G01*
X110719000Y-131571000D01*
X110719000Y-127509000D01*
X112801000Y-127509000D01*
X112801000Y-131571000D01*
X112801000Y-131571000D01*
G37*
G36*
X76484903Y-124527075D02*
G01*
X76712571Y-124621378D01*
X76917466Y-124758285D01*
X77091715Y-124932534D01*
X77228622Y-125137429D01*
X77322925Y-125365097D01*
X77371000Y-125606787D01*
X77371000Y-125853213D01*
X77322925Y-126094903D01*
X77228622Y-126322571D01*
X77091715Y-126527466D01*
X76917466Y-126701715D01*
X76712571Y-126838622D01*
X76712570Y-126838623D01*
X76712569Y-126838623D01*
X76484903Y-126932925D01*
X76243214Y-126981000D01*
X75996786Y-126981000D01*
X75755097Y-126932925D01*
X75527431Y-126838623D01*
X75527430Y-126838623D01*
X75527429Y-126838622D01*
X75322534Y-126701715D01*
X75148285Y-126527466D01*
X75011378Y-126322571D01*
X74917075Y-126094903D01*
X74869000Y-125853213D01*
X74869000Y-125606787D01*
X74917075Y-125365097D01*
X75011378Y-125137429D01*
X75148285Y-124932534D01*
X75322534Y-124758285D01*
X75527429Y-124621378D01*
X75755097Y-124527075D01*
X75996786Y-124479000D01*
X76243214Y-124479000D01*
X76484903Y-124527075D01*
X76484903Y-124527075D01*
G37*
G36*
X71484903Y-124527075D02*
G01*
X71712571Y-124621378D01*
X71917466Y-124758285D01*
X72091715Y-124932534D01*
X72228622Y-125137429D01*
X72322925Y-125365097D01*
X72371000Y-125606787D01*
X72371000Y-125853213D01*
X72322925Y-126094903D01*
X72228622Y-126322571D01*
X72091715Y-126527466D01*
X71917466Y-126701715D01*
X71712571Y-126838622D01*
X71712570Y-126838623D01*
X71712569Y-126838623D01*
X71484903Y-126932925D01*
X71243214Y-126981000D01*
X70996786Y-126981000D01*
X70755097Y-126932925D01*
X70527431Y-126838623D01*
X70527430Y-126838623D01*
X70527429Y-126838622D01*
X70322534Y-126701715D01*
X70148285Y-126527466D01*
X70011378Y-126322571D01*
X69917075Y-126094903D01*
X69869000Y-125853213D01*
X69869000Y-125606787D01*
X69917075Y-125365097D01*
X70011378Y-125137429D01*
X70148285Y-124932534D01*
X70322534Y-124758285D01*
X70527429Y-124621378D01*
X70755097Y-124527075D01*
X70996786Y-124479000D01*
X71243214Y-124479000D01*
X71484903Y-124527075D01*
X71484903Y-124527075D01*
G37*
G36*
X62594903Y-124527075D02*
G01*
X62822571Y-124621378D01*
X63027466Y-124758285D01*
X63201715Y-124932534D01*
X63338622Y-125137429D01*
X63432925Y-125365097D01*
X63481000Y-125606787D01*
X63481000Y-125853213D01*
X63432925Y-126094903D01*
X63338622Y-126322571D01*
X63201715Y-126527466D01*
X63027466Y-126701715D01*
X62822571Y-126838622D01*
X62822570Y-126838623D01*
X62822569Y-126838623D01*
X62594903Y-126932925D01*
X62353214Y-126981000D01*
X62106786Y-126981000D01*
X61865097Y-126932925D01*
X61637431Y-126838623D01*
X61637430Y-126838623D01*
X61637429Y-126838622D01*
X61432534Y-126701715D01*
X61258285Y-126527466D01*
X61121378Y-126322571D01*
X61027075Y-126094903D01*
X60979000Y-125853213D01*
X60979000Y-125606787D01*
X61027075Y-125365097D01*
X61121378Y-125137429D01*
X61258285Y-124932534D01*
X61432534Y-124758285D01*
X61637429Y-124621378D01*
X61865097Y-124527075D01*
X62106786Y-124479000D01*
X62353214Y-124479000D01*
X62594903Y-124527075D01*
X62594903Y-124527075D01*
G37*
G36*
X57594903Y-124527075D02*
G01*
X57822571Y-124621378D01*
X58027466Y-124758285D01*
X58201715Y-124932534D01*
X58338622Y-125137429D01*
X58432925Y-125365097D01*
X58481000Y-125606787D01*
X58481000Y-125853213D01*
X58432925Y-126094903D01*
X58338622Y-126322571D01*
X58201715Y-126527466D01*
X58027466Y-126701715D01*
X57822571Y-126838622D01*
X57822570Y-126838623D01*
X57822569Y-126838623D01*
X57594903Y-126932925D01*
X57353214Y-126981000D01*
X57106786Y-126981000D01*
X56865097Y-126932925D01*
X56637431Y-126838623D01*
X56637430Y-126838623D01*
X56637429Y-126838622D01*
X56432534Y-126701715D01*
X56258285Y-126527466D01*
X56121378Y-126322571D01*
X56027075Y-126094903D01*
X55979000Y-125853213D01*
X55979000Y-125606787D01*
X56027075Y-125365097D01*
X56121378Y-125137429D01*
X56258285Y-124932534D01*
X56432534Y-124758285D01*
X56637429Y-124621378D01*
X56865097Y-124527075D01*
X57106786Y-124479000D01*
X57353214Y-124479000D01*
X57594903Y-124527075D01*
X57594903Y-124527075D01*
G37*
G36*
X92813097Y-115794069D02*
G01*
X92916032Y-115804207D01*
X93114146Y-115864305D01*
X93114149Y-115864306D01*
X93210975Y-115916061D01*
X93296729Y-115961897D01*
X93456765Y-116093235D01*
X93588103Y-116253271D01*
X93602926Y-116281004D01*
X93685694Y-116435851D01*
X93685695Y-116435854D01*
X93745793Y-116633968D01*
X93766085Y-116840000D01*
X93745793Y-117046032D01*
X93705787Y-117177913D01*
X93685694Y-117244149D01*
X93663061Y-117286492D01*
X93588103Y-117426729D01*
X93456765Y-117586765D01*
X93296729Y-117718103D01*
X93210975Y-117763939D01*
X93114149Y-117815694D01*
X93114146Y-117815695D01*
X92916032Y-117875793D01*
X92813097Y-117885931D01*
X92761631Y-117891000D01*
X92658369Y-117891000D01*
X92606903Y-117885931D01*
X92503968Y-117875793D01*
X92305854Y-117815695D01*
X92305851Y-117815694D01*
X92209025Y-117763939D01*
X92123271Y-117718103D01*
X91963235Y-117586765D01*
X91831897Y-117426729D01*
X91756939Y-117286492D01*
X91734306Y-117244149D01*
X91714213Y-117177913D01*
X91674207Y-117046032D01*
X91653915Y-116840000D01*
X91674207Y-116633968D01*
X91734305Y-116435854D01*
X91734306Y-116435851D01*
X91817074Y-116281004D01*
X91831897Y-116253271D01*
X91963235Y-116093235D01*
X92123271Y-115961897D01*
X92209025Y-115916061D01*
X92305851Y-115864306D01*
X92305854Y-115864305D01*
X92503968Y-115804207D01*
X92606903Y-115794069D01*
X92658369Y-115789000D01*
X92761631Y-115789000D01*
X92813097Y-115794069D01*
X92813097Y-115794069D01*
G37*
G36*
X149963097Y-115554069D02*
G01*
X150066032Y-115564207D01*
X150264146Y-115624305D01*
X150264149Y-115624306D01*
X150360975Y-115676061D01*
X150446729Y-115721897D01*
X150606765Y-115853235D01*
X150738103Y-116013271D01*
X150780844Y-116093235D01*
X150835694Y-116195851D01*
X150835695Y-116195854D01*
X150895793Y-116393968D01*
X150916085Y-116600000D01*
X150895793Y-116806032D01*
X150835695Y-117004146D01*
X150835694Y-117004149D01*
X150813308Y-117046030D01*
X150738103Y-117186729D01*
X150606765Y-117346765D01*
X150446729Y-117478103D01*
X150360975Y-117523939D01*
X150264149Y-117575694D01*
X150264146Y-117575695D01*
X150066032Y-117635793D01*
X149984876Y-117643786D01*
X149911631Y-117651000D01*
X149808369Y-117651000D01*
X149735124Y-117643786D01*
X149653968Y-117635793D01*
X149455854Y-117575695D01*
X149455851Y-117575694D01*
X149359025Y-117523939D01*
X149273271Y-117478103D01*
X149113235Y-117346765D01*
X148981897Y-117186729D01*
X148906692Y-117046030D01*
X148884306Y-117004149D01*
X148884305Y-117004146D01*
X148824207Y-116806032D01*
X148803915Y-116600000D01*
X148824207Y-116393968D01*
X148884305Y-116195854D01*
X148884306Y-116195851D01*
X148939156Y-116093235D01*
X148981897Y-116013271D01*
X149113235Y-115853235D01*
X149273271Y-115721897D01*
X149359025Y-115676061D01*
X149455851Y-115624306D01*
X149455854Y-115624305D01*
X149653968Y-115564207D01*
X149756903Y-115554069D01*
X149808369Y-115549000D01*
X149911631Y-115549000D01*
X149963097Y-115554069D01*
X149963097Y-115554069D01*
G37*
G36*
X111863097Y-115554069D02*
G01*
X111966032Y-115564207D01*
X112164146Y-115624305D01*
X112164149Y-115624306D01*
X112260975Y-115676061D01*
X112346729Y-115721897D01*
X112506765Y-115853235D01*
X112638103Y-116013271D01*
X112680844Y-116093235D01*
X112735694Y-116195851D01*
X112735695Y-116195854D01*
X112795793Y-116393968D01*
X112816085Y-116600000D01*
X112795793Y-116806032D01*
X112735695Y-117004146D01*
X112735694Y-117004149D01*
X112713308Y-117046030D01*
X112638103Y-117186729D01*
X112506765Y-117346765D01*
X112346729Y-117478103D01*
X112260975Y-117523939D01*
X112164149Y-117575694D01*
X112164146Y-117575695D01*
X111966032Y-117635793D01*
X111884876Y-117643786D01*
X111811631Y-117651000D01*
X111708369Y-117651000D01*
X111635124Y-117643786D01*
X111553968Y-117635793D01*
X111355854Y-117575695D01*
X111355851Y-117575694D01*
X111259025Y-117523939D01*
X111173271Y-117478103D01*
X111013235Y-117346765D01*
X110881897Y-117186729D01*
X110806692Y-117046030D01*
X110784306Y-117004149D01*
X110784305Y-117004146D01*
X110724207Y-116806032D01*
X110703915Y-116600000D01*
X110724207Y-116393968D01*
X110784305Y-116195854D01*
X110784306Y-116195851D01*
X110839156Y-116093235D01*
X110881897Y-116013271D01*
X111013235Y-115853235D01*
X111173271Y-115721897D01*
X111259025Y-115676061D01*
X111355851Y-115624306D01*
X111355854Y-115624305D01*
X111553968Y-115564207D01*
X111656903Y-115554069D01*
X111708369Y-115549000D01*
X111811631Y-115549000D01*
X111863097Y-115554069D01*
X111863097Y-115554069D01*
G37*
G36*
X132183097Y-115554069D02*
G01*
X132286032Y-115564207D01*
X132484146Y-115624305D01*
X132484149Y-115624306D01*
X132580975Y-115676061D01*
X132666729Y-115721897D01*
X132826765Y-115853235D01*
X132958103Y-116013271D01*
X133000844Y-116093235D01*
X133055694Y-116195851D01*
X133055695Y-116195854D01*
X133115793Y-116393968D01*
X133136085Y-116600000D01*
X133115793Y-116806032D01*
X133055695Y-117004146D01*
X133055694Y-117004149D01*
X133033308Y-117046030D01*
X132958103Y-117186729D01*
X132826765Y-117346765D01*
X132666729Y-117478103D01*
X132580975Y-117523939D01*
X132484149Y-117575694D01*
X132484146Y-117575695D01*
X132286032Y-117635793D01*
X132204876Y-117643786D01*
X132131631Y-117651000D01*
X132028369Y-117651000D01*
X131955124Y-117643786D01*
X131873968Y-117635793D01*
X131675854Y-117575695D01*
X131675851Y-117575694D01*
X131579025Y-117523939D01*
X131493271Y-117478103D01*
X131333235Y-117346765D01*
X131201897Y-117186729D01*
X131126692Y-117046030D01*
X131104306Y-117004149D01*
X131104305Y-117004146D01*
X131044207Y-116806032D01*
X131023915Y-116600000D01*
X131044207Y-116393968D01*
X131104305Y-116195854D01*
X131104306Y-116195851D01*
X131159156Y-116093235D01*
X131201897Y-116013271D01*
X131333235Y-115853235D01*
X131493271Y-115721897D01*
X131579025Y-115676061D01*
X131675851Y-115624306D01*
X131675854Y-115624305D01*
X131873968Y-115564207D01*
X131976903Y-115554069D01*
X132028369Y-115549000D01*
X132131631Y-115549000D01*
X132183097Y-115554069D01*
X132183097Y-115554069D01*
G37*
G36*
X57262916Y-116047334D02*
G01*
X57371492Y-116080271D01*
X57371495Y-116080272D01*
X57407601Y-116099571D01*
X57471557Y-116133756D01*
X57559264Y-116205736D01*
X57622383Y-116282646D01*
X57639702Y-116299965D01*
X57660077Y-116313579D01*
X57682716Y-116322957D01*
X57706749Y-116327737D01*
X57731253Y-116327737D01*
X57755286Y-116322957D01*
X57777925Y-116313579D01*
X57798299Y-116299966D01*
X57815626Y-116282639D01*
X57829240Y-116262264D01*
X57838618Y-116239625D01*
X57843398Y-116215592D01*
X57844000Y-116203340D01*
X57844000Y-116039000D01*
X58996000Y-116039000D01*
X58996000Y-117641000D01*
X57844000Y-117641000D01*
X57844000Y-117476660D01*
X57841598Y-117452274D01*
X57834485Y-117428825D01*
X57822934Y-117407214D01*
X57807389Y-117388272D01*
X57788447Y-117372727D01*
X57766836Y-117361176D01*
X57743387Y-117354063D01*
X57719001Y-117351661D01*
X57694615Y-117354063D01*
X57671166Y-117361176D01*
X57649555Y-117372727D01*
X57622381Y-117397356D01*
X57559264Y-117474264D01*
X57471556Y-117546244D01*
X57416458Y-117575694D01*
X57371494Y-117599728D01*
X57371491Y-117599729D01*
X57262915Y-117632666D01*
X57150000Y-117643787D01*
X57037084Y-117632666D01*
X56928508Y-117599729D01*
X56928505Y-117599728D01*
X56883541Y-117575694D01*
X56828443Y-117546244D01*
X56740736Y-117474264D01*
X56668756Y-117386556D01*
X56625239Y-117305140D01*
X56611625Y-117284766D01*
X56594298Y-117267439D01*
X56573924Y-117253825D01*
X56551285Y-117244448D01*
X56527251Y-117239668D01*
X56502747Y-117239668D01*
X56478714Y-117244449D01*
X56456075Y-117253826D01*
X56435701Y-117267440D01*
X56418374Y-117284767D01*
X56404762Y-117305140D01*
X56361244Y-117386557D01*
X56289264Y-117474264D01*
X56201556Y-117546244D01*
X56146458Y-117575694D01*
X56101494Y-117599728D01*
X56101491Y-117599729D01*
X55992915Y-117632666D01*
X55880000Y-117643787D01*
X55767084Y-117632666D01*
X55658508Y-117599729D01*
X55658505Y-117599728D01*
X55613541Y-117575694D01*
X55558443Y-117546244D01*
X55470736Y-117474264D01*
X55398756Y-117386556D01*
X55355239Y-117305140D01*
X55345272Y-117286494D01*
X55339492Y-117267440D01*
X55312334Y-117177915D01*
X55304000Y-117093297D01*
X55304000Y-116586702D01*
X55312334Y-116502084D01*
X55345271Y-116393508D01*
X55345272Y-116393505D01*
X55398756Y-116293445D01*
X55398757Y-116293443D01*
X55470737Y-116205736D01*
X55558444Y-116133756D01*
X55622400Y-116099571D01*
X55658506Y-116080272D01*
X55658509Y-116080271D01*
X55767085Y-116047334D01*
X55880000Y-116036213D01*
X55992916Y-116047334D01*
X56101492Y-116080271D01*
X56101495Y-116080272D01*
X56137601Y-116099571D01*
X56201557Y-116133756D01*
X56289264Y-116205736D01*
X56361244Y-116293443D01*
X56396832Y-116360025D01*
X56404761Y-116374859D01*
X56418375Y-116395234D01*
X56435702Y-116412561D01*
X56456076Y-116426174D01*
X56478715Y-116435552D01*
X56502748Y-116440332D01*
X56527252Y-116440332D01*
X56551285Y-116435552D01*
X56573924Y-116426174D01*
X56594299Y-116412560D01*
X56611626Y-116395233D01*
X56625239Y-116374859D01*
X56668756Y-116293445D01*
X56668757Y-116293443D01*
X56740737Y-116205736D01*
X56828444Y-116133756D01*
X56892400Y-116099571D01*
X56928506Y-116080272D01*
X56928509Y-116080271D01*
X57037085Y-116047334D01*
X57150000Y-116036213D01*
X57262916Y-116047334D01*
X57262916Y-116047334D01*
G37*
G36*
X80330345Y-114653442D02*
G01*
X80420548Y-114662326D01*
X80594157Y-114714990D01*
X80754156Y-114800511D01*
X80797729Y-114836271D01*
X80894397Y-114915603D01*
X80973729Y-115012271D01*
X81009489Y-115055844D01*
X81095010Y-115215843D01*
X81147674Y-115389452D01*
X81165456Y-115570000D01*
X81147674Y-115750548D01*
X81095010Y-115924157D01*
X81009489Y-116084156D01*
X80973729Y-116127729D01*
X80894397Y-116224397D01*
X80797729Y-116303729D01*
X80754156Y-116339489D01*
X80594157Y-116425010D01*
X80420548Y-116477674D01*
X80330345Y-116486558D01*
X80285245Y-116491000D01*
X79734755Y-116491000D01*
X79689655Y-116486558D01*
X79599452Y-116477674D01*
X79425843Y-116425010D01*
X79265844Y-116339489D01*
X79222271Y-116303729D01*
X79125603Y-116224397D01*
X79046271Y-116127729D01*
X79010511Y-116084156D01*
X78924990Y-115924157D01*
X78872326Y-115750548D01*
X78854544Y-115570000D01*
X78872326Y-115389452D01*
X78924990Y-115215843D01*
X79010511Y-115055844D01*
X79046271Y-115012271D01*
X79125603Y-114915603D01*
X79222271Y-114836271D01*
X79265844Y-114800511D01*
X79425843Y-114714990D01*
X79599452Y-114662326D01*
X79689655Y-114653442D01*
X79734755Y-114649000D01*
X80285245Y-114649000D01*
X80330345Y-114653442D01*
X80330345Y-114653442D01*
G37*
G36*
X72556823Y-114731313D02*
G01*
X72717242Y-114779976D01*
X72849906Y-114850886D01*
X72865078Y-114858996D01*
X72994659Y-114965341D01*
X73101004Y-115094922D01*
X73101005Y-115094924D01*
X73180024Y-115242758D01*
X73228687Y-115403177D01*
X73245117Y-115570000D01*
X73228687Y-115736823D01*
X73180024Y-115897242D01*
X73145465Y-115961897D01*
X73101004Y-116045078D01*
X72994659Y-116174659D01*
X72865078Y-116281004D01*
X72865076Y-116281005D01*
X72717242Y-116360024D01*
X72556823Y-116408687D01*
X72431804Y-116421000D01*
X72348196Y-116421000D01*
X72223177Y-116408687D01*
X72062758Y-116360024D01*
X71914924Y-116281005D01*
X71914922Y-116281004D01*
X71785341Y-116174659D01*
X71678996Y-116045078D01*
X71634535Y-115961897D01*
X71599976Y-115897242D01*
X71551313Y-115736823D01*
X71534883Y-115570000D01*
X71551313Y-115403177D01*
X71599976Y-115242758D01*
X71678995Y-115094924D01*
X71678996Y-115094922D01*
X71785341Y-114965341D01*
X71914922Y-114858996D01*
X71930094Y-114850886D01*
X72062758Y-114779976D01*
X72223177Y-114731313D01*
X72348196Y-114719000D01*
X72431804Y-114719000D01*
X72556823Y-114731313D01*
X72556823Y-114731313D01*
G37*
G36*
X65621000Y-116421000D02*
G01*
X63919000Y-116421000D01*
X63919000Y-114719000D01*
X65621000Y-114719000D01*
X65621000Y-116421000D01*
X65621000Y-116421000D01*
G37*
G36*
X67476823Y-114731313D02*
G01*
X67637242Y-114779976D01*
X67769906Y-114850886D01*
X67785078Y-114858996D01*
X67914659Y-114965341D01*
X68021004Y-115094922D01*
X68021005Y-115094924D01*
X68100024Y-115242758D01*
X68148687Y-115403177D01*
X68165117Y-115570000D01*
X68148687Y-115736823D01*
X68100024Y-115897242D01*
X68065465Y-115961897D01*
X68021004Y-116045078D01*
X67914659Y-116174659D01*
X67785078Y-116281004D01*
X67785076Y-116281005D01*
X67637242Y-116360024D01*
X67476823Y-116408687D01*
X67351804Y-116421000D01*
X67268196Y-116421000D01*
X67143177Y-116408687D01*
X66982758Y-116360024D01*
X66834924Y-116281005D01*
X66834922Y-116281004D01*
X66705341Y-116174659D01*
X66598996Y-116045078D01*
X66554535Y-115961897D01*
X66519976Y-115897242D01*
X66471313Y-115736823D01*
X66454883Y-115570000D01*
X66471313Y-115403177D01*
X66519976Y-115242758D01*
X66598995Y-115094924D01*
X66598996Y-115094922D01*
X66705341Y-114965341D01*
X66834922Y-114858996D01*
X66850094Y-114850886D01*
X66982758Y-114779976D01*
X67143177Y-114731313D01*
X67268196Y-114719000D01*
X67351804Y-114719000D01*
X67476823Y-114731313D01*
X67476823Y-114731313D01*
G37*
G36*
X70016823Y-114731313D02*
G01*
X70177242Y-114779976D01*
X70309906Y-114850886D01*
X70325078Y-114858996D01*
X70454659Y-114965341D01*
X70561004Y-115094922D01*
X70561005Y-115094924D01*
X70640024Y-115242758D01*
X70688687Y-115403177D01*
X70705117Y-115570000D01*
X70688687Y-115736823D01*
X70640024Y-115897242D01*
X70605465Y-115961897D01*
X70561004Y-116045078D01*
X70454659Y-116174659D01*
X70325078Y-116281004D01*
X70325076Y-116281005D01*
X70177242Y-116360024D01*
X70016823Y-116408687D01*
X69891804Y-116421000D01*
X69808196Y-116421000D01*
X69683177Y-116408687D01*
X69522758Y-116360024D01*
X69374924Y-116281005D01*
X69374922Y-116281004D01*
X69245341Y-116174659D01*
X69138996Y-116045078D01*
X69094535Y-115961897D01*
X69059976Y-115897242D01*
X69011313Y-115736823D01*
X68994883Y-115570000D01*
X69011313Y-115403177D01*
X69059976Y-115242758D01*
X69138995Y-115094924D01*
X69138996Y-115094922D01*
X69245341Y-114965341D01*
X69374922Y-114858996D01*
X69390094Y-114850886D01*
X69522758Y-114779976D01*
X69683177Y-114731313D01*
X69808196Y-114719000D01*
X69891804Y-114719000D01*
X70016823Y-114731313D01*
X70016823Y-114731313D01*
G37*
G36*
X80330345Y-112113442D02*
G01*
X80420548Y-112122326D01*
X80594157Y-112174990D01*
X80754156Y-112260511D01*
X80797729Y-112296271D01*
X80894397Y-112375603D01*
X80973729Y-112472271D01*
X81009489Y-112515844D01*
X81095010Y-112675843D01*
X81147674Y-112849452D01*
X81165456Y-113030000D01*
X81147674Y-113210548D01*
X81095010Y-113384157D01*
X81009489Y-113544156D01*
X80973729Y-113587729D01*
X80894397Y-113684397D01*
X80797729Y-113763729D01*
X80754156Y-113799489D01*
X80594157Y-113885010D01*
X80420548Y-113937674D01*
X80330345Y-113946558D01*
X80285245Y-113951000D01*
X79734755Y-113951000D01*
X79689655Y-113946558D01*
X79599452Y-113937674D01*
X79425843Y-113885010D01*
X79265844Y-113799489D01*
X79222271Y-113763729D01*
X79125603Y-113684397D01*
X79046271Y-113587729D01*
X79010511Y-113544156D01*
X78924990Y-113384157D01*
X78872326Y-113210548D01*
X78854544Y-113030000D01*
X78872326Y-112849452D01*
X78924990Y-112675843D01*
X79010511Y-112515844D01*
X79046271Y-112472271D01*
X79125603Y-112375603D01*
X79222271Y-112296271D01*
X79265844Y-112260511D01*
X79425843Y-112174990D01*
X79599452Y-112122326D01*
X79689655Y-112113442D01*
X79734755Y-112109000D01*
X80285245Y-112109000D01*
X80330345Y-112113442D01*
X80330345Y-112113442D01*
G37*
G36*
X81019561Y-109572966D02*
G01*
X81052383Y-109582923D01*
X81082632Y-109599092D01*
X81109148Y-109620852D01*
X81130908Y-109647368D01*
X81147077Y-109677617D01*
X81157034Y-109710439D01*
X81161000Y-109750713D01*
X81161000Y-111229287D01*
X81157034Y-111269561D01*
X81147077Y-111302383D01*
X81130908Y-111332632D01*
X81109148Y-111359148D01*
X81082632Y-111380908D01*
X81052383Y-111397077D01*
X81019561Y-111407034D01*
X80979287Y-111411000D01*
X79040713Y-111411000D01*
X79000439Y-111407034D01*
X78967617Y-111397077D01*
X78937368Y-111380908D01*
X78910852Y-111359148D01*
X78889092Y-111332632D01*
X78872923Y-111302383D01*
X78862966Y-111269561D01*
X78859000Y-111229287D01*
X78859000Y-109750713D01*
X78862966Y-109710439D01*
X78872923Y-109677617D01*
X78889092Y-109647368D01*
X78910852Y-109620852D01*
X78937368Y-109599092D01*
X78967617Y-109582923D01*
X79000439Y-109572966D01*
X79040713Y-109569000D01*
X80979287Y-109569000D01*
X81019561Y-109572966D01*
X81019561Y-109572966D01*
G37*
G36*
X52266720Y-106913520D02*
G01*
X52455881Y-106970901D01*
X52630212Y-107064083D01*
X52783015Y-107189485D01*
X52908417Y-107342288D01*
X52952182Y-107424167D01*
X53001598Y-107516617D01*
X53001599Y-107516620D01*
X53058980Y-107705781D01*
X53073500Y-107853207D01*
X53073500Y-108046794D01*
X53058980Y-108194220D01*
X53001599Y-108383381D01*
X52908417Y-108557712D01*
X52783015Y-108710515D01*
X52630212Y-108835917D01*
X52548333Y-108879682D01*
X52455883Y-108929098D01*
X52455880Y-108929099D01*
X52266719Y-108986480D01*
X52070000Y-109005855D01*
X51873280Y-108986480D01*
X51684119Y-108929099D01*
X51509788Y-108835917D01*
X51356985Y-108710515D01*
X51231583Y-108557712D01*
X51160688Y-108425076D01*
X51138402Y-108383383D01*
X51106204Y-108277239D01*
X51081020Y-108194219D01*
X51066500Y-108046793D01*
X51066500Y-107853206D01*
X51081020Y-107705780D01*
X51138401Y-107516619D01*
X51231583Y-107342288D01*
X51356985Y-107189485D01*
X51509788Y-107064083D01*
X51684120Y-106970901D01*
X51873281Y-106913520D01*
X52070000Y-106894145D01*
X52266720Y-106913520D01*
X52266720Y-106913520D01*
G37*
G36*
X54806720Y-106913520D02*
G01*
X54995881Y-106970901D01*
X55170212Y-107064083D01*
X55323015Y-107189485D01*
X55448417Y-107342288D01*
X55492182Y-107424167D01*
X55541598Y-107516617D01*
X55541599Y-107516620D01*
X55598980Y-107705781D01*
X55613500Y-107853207D01*
X55613500Y-108046794D01*
X55598980Y-108194220D01*
X55541599Y-108383381D01*
X55448417Y-108557712D01*
X55323015Y-108710515D01*
X55170212Y-108835917D01*
X55088333Y-108879682D01*
X54995883Y-108929098D01*
X54995880Y-108929099D01*
X54806719Y-108986480D01*
X54610000Y-109005855D01*
X54413280Y-108986480D01*
X54224119Y-108929099D01*
X54049788Y-108835917D01*
X53896985Y-108710515D01*
X53771583Y-108557712D01*
X53700688Y-108425076D01*
X53678402Y-108383383D01*
X53646204Y-108277239D01*
X53621020Y-108194219D01*
X53606500Y-108046793D01*
X53606500Y-107853206D01*
X53621020Y-107705780D01*
X53678401Y-107516619D01*
X53771583Y-107342288D01*
X53896985Y-107189485D01*
X54049788Y-107064083D01*
X54224120Y-106970901D01*
X54413281Y-106913520D01*
X54610000Y-106894145D01*
X54806720Y-106913520D01*
X54806720Y-106913520D01*
G37*
G36*
X58153500Y-109001000D02*
G01*
X56146500Y-109001000D01*
X56146500Y-106899000D01*
X58153500Y-106899000D01*
X58153500Y-109001000D01*
X58153500Y-109001000D01*
G37*
G36*
X64936823Y-107111313D02*
G01*
X65097242Y-107159976D01*
X65152449Y-107189485D01*
X65245078Y-107238996D01*
X65374659Y-107345341D01*
X65481004Y-107474922D01*
X65481005Y-107474924D01*
X65560024Y-107622758D01*
X65608687Y-107783177D01*
X65625117Y-107950000D01*
X65608687Y-108116823D01*
X65560024Y-108277242D01*
X65503292Y-108383380D01*
X65481004Y-108425078D01*
X65374659Y-108554659D01*
X65245078Y-108661004D01*
X65245076Y-108661005D01*
X65097242Y-108740024D01*
X64936823Y-108788687D01*
X64811804Y-108801000D01*
X64728196Y-108801000D01*
X64603177Y-108788687D01*
X64442758Y-108740024D01*
X64294924Y-108661005D01*
X64294922Y-108661004D01*
X64165341Y-108554659D01*
X64058996Y-108425078D01*
X64036708Y-108383380D01*
X63979976Y-108277242D01*
X63931313Y-108116823D01*
X63914883Y-107950000D01*
X63931313Y-107783177D01*
X63979976Y-107622758D01*
X64058995Y-107474924D01*
X64058996Y-107474922D01*
X64165341Y-107345341D01*
X64294922Y-107238996D01*
X64387551Y-107189485D01*
X64442758Y-107159976D01*
X64603177Y-107111313D01*
X64728196Y-107099000D01*
X64811804Y-107099000D01*
X64936823Y-107111313D01*
X64936823Y-107111313D01*
G37*
G36*
X72556823Y-107111313D02*
G01*
X72717242Y-107159976D01*
X72772449Y-107189485D01*
X72865078Y-107238996D01*
X72994659Y-107345341D01*
X73101004Y-107474922D01*
X73101005Y-107474924D01*
X73180024Y-107622758D01*
X73228687Y-107783177D01*
X73245117Y-107950000D01*
X73228687Y-108116823D01*
X73180024Y-108277242D01*
X73123292Y-108383380D01*
X73101004Y-108425078D01*
X72994659Y-108554659D01*
X72865078Y-108661004D01*
X72865076Y-108661005D01*
X72717242Y-108740024D01*
X72556823Y-108788687D01*
X72431804Y-108801000D01*
X72348196Y-108801000D01*
X72223177Y-108788687D01*
X72062758Y-108740024D01*
X71914924Y-108661005D01*
X71914922Y-108661004D01*
X71785341Y-108554659D01*
X71678996Y-108425078D01*
X71656708Y-108383380D01*
X71599976Y-108277242D01*
X71551313Y-108116823D01*
X71534883Y-107950000D01*
X71551313Y-107783177D01*
X71599976Y-107622758D01*
X71678995Y-107474924D01*
X71678996Y-107474922D01*
X71785341Y-107345341D01*
X71914922Y-107238996D01*
X72007551Y-107189485D01*
X72062758Y-107159976D01*
X72223177Y-107111313D01*
X72348196Y-107099000D01*
X72431804Y-107099000D01*
X72556823Y-107111313D01*
X72556823Y-107111313D01*
G37*
G36*
X67476823Y-107111313D02*
G01*
X67637242Y-107159976D01*
X67692449Y-107189485D01*
X67785078Y-107238996D01*
X67914659Y-107345341D01*
X68021004Y-107474922D01*
X68021005Y-107474924D01*
X68100024Y-107622758D01*
X68148687Y-107783177D01*
X68165117Y-107950000D01*
X68148687Y-108116823D01*
X68100024Y-108277242D01*
X68043292Y-108383380D01*
X68021004Y-108425078D01*
X67914659Y-108554659D01*
X67785078Y-108661004D01*
X67785076Y-108661005D01*
X67637242Y-108740024D01*
X67476823Y-108788687D01*
X67351804Y-108801000D01*
X67268196Y-108801000D01*
X67143177Y-108788687D01*
X66982758Y-108740024D01*
X66834924Y-108661005D01*
X66834922Y-108661004D01*
X66705341Y-108554659D01*
X66598996Y-108425078D01*
X66576708Y-108383380D01*
X66519976Y-108277242D01*
X66471313Y-108116823D01*
X66454883Y-107950000D01*
X66471313Y-107783177D01*
X66519976Y-107622758D01*
X66598995Y-107474924D01*
X66598996Y-107474922D01*
X66705341Y-107345341D01*
X66834922Y-107238996D01*
X66927551Y-107189485D01*
X66982758Y-107159976D01*
X67143177Y-107111313D01*
X67268196Y-107099000D01*
X67351804Y-107099000D01*
X67476823Y-107111313D01*
X67476823Y-107111313D01*
G37*
G36*
X70016823Y-107111313D02*
G01*
X70177242Y-107159976D01*
X70232449Y-107189485D01*
X70325078Y-107238996D01*
X70454659Y-107345341D01*
X70561004Y-107474922D01*
X70561005Y-107474924D01*
X70640024Y-107622758D01*
X70688687Y-107783177D01*
X70705117Y-107950000D01*
X70688687Y-108116823D01*
X70640024Y-108277242D01*
X70583292Y-108383380D01*
X70561004Y-108425078D01*
X70454659Y-108554659D01*
X70325078Y-108661004D01*
X70325076Y-108661005D01*
X70177242Y-108740024D01*
X70016823Y-108788687D01*
X69891804Y-108801000D01*
X69808196Y-108801000D01*
X69683177Y-108788687D01*
X69522758Y-108740024D01*
X69374924Y-108661005D01*
X69374922Y-108661004D01*
X69245341Y-108554659D01*
X69138996Y-108425078D01*
X69116708Y-108383380D01*
X69059976Y-108277242D01*
X69011313Y-108116823D01*
X68994883Y-107950000D01*
X69011313Y-107783177D01*
X69059976Y-107622758D01*
X69138995Y-107474924D01*
X69138996Y-107474922D01*
X69245341Y-107345341D01*
X69374922Y-107238996D01*
X69467551Y-107189485D01*
X69522758Y-107159976D01*
X69683177Y-107111313D01*
X69808196Y-107099000D01*
X69891804Y-107099000D01*
X70016823Y-107111313D01*
X70016823Y-107111313D01*
G37*
G36*
X93761000Y-102891000D02*
G01*
X91659000Y-102891000D01*
X91659000Y-100789000D01*
X93761000Y-100789000D01*
X93761000Y-102891000D01*
X93761000Y-102891000D01*
G37*
G36*
X150911000Y-102651000D02*
G01*
X148809000Y-102651000D01*
X148809000Y-100549000D01*
X150911000Y-100549000D01*
X150911000Y-102651000D01*
X150911000Y-102651000D01*
G37*
G36*
X133131000Y-102651000D02*
G01*
X131029000Y-102651000D01*
X131029000Y-100549000D01*
X133131000Y-100549000D01*
X133131000Y-102651000D01*
X133131000Y-102651000D01*
G37*
G36*
X112811000Y-102651000D02*
G01*
X110709000Y-102651000D01*
X110709000Y-100549000D01*
X112811000Y-100549000D01*
X112811000Y-102651000D01*
X112811000Y-102651000D01*
G37*
G36*
X80330345Y-100683442D02*
G01*
X80420548Y-100692326D01*
X80594157Y-100744990D01*
X80754156Y-100830511D01*
X80797729Y-100866271D01*
X80894397Y-100945603D01*
X80973729Y-101042271D01*
X81009489Y-101085844D01*
X81095010Y-101245843D01*
X81147674Y-101419452D01*
X81165456Y-101600000D01*
X81147674Y-101780548D01*
X81095010Y-101954157D01*
X81009489Y-102114156D01*
X80973729Y-102157729D01*
X80894397Y-102254397D01*
X80797729Y-102333729D01*
X80754156Y-102369489D01*
X80594157Y-102455010D01*
X80420548Y-102507674D01*
X80330345Y-102516558D01*
X80285245Y-102521000D01*
X79734755Y-102521000D01*
X79689655Y-102516558D01*
X79599452Y-102507674D01*
X79425843Y-102455010D01*
X79265844Y-102369489D01*
X79222271Y-102333729D01*
X79125603Y-102254397D01*
X79046271Y-102157729D01*
X79010511Y-102114156D01*
X78924990Y-101954157D01*
X78872326Y-101780548D01*
X78854544Y-101600000D01*
X78872326Y-101419452D01*
X78924990Y-101245843D01*
X79010511Y-101085844D01*
X79046271Y-101042271D01*
X79125603Y-100945603D01*
X79222271Y-100866271D01*
X79265844Y-100830511D01*
X79425843Y-100744990D01*
X79599452Y-100692326D01*
X79689655Y-100683442D01*
X79734755Y-100679000D01*
X80285245Y-100679000D01*
X80330345Y-100683442D01*
X80330345Y-100683442D01*
G37*
G36*
X71404903Y-97857075D02*
G01*
X71632571Y-97951378D01*
X71837466Y-98088285D01*
X72011715Y-98262534D01*
X72148622Y-98467429D01*
X72148623Y-98467431D01*
X72242925Y-98695097D01*
X72291000Y-98936786D01*
X72291000Y-99183214D01*
X72242925Y-99424903D01*
X72181103Y-99574156D01*
X72148622Y-99652571D01*
X72011715Y-99857466D01*
X71837466Y-100031715D01*
X71632571Y-100168622D01*
X71632570Y-100168623D01*
X71632569Y-100168623D01*
X71404903Y-100262925D01*
X71163214Y-100311000D01*
X70916786Y-100311000D01*
X70675097Y-100262925D01*
X70447431Y-100168623D01*
X70447430Y-100168623D01*
X70447429Y-100168622D01*
X70242534Y-100031715D01*
X70068285Y-99857466D01*
X69931378Y-99652571D01*
X69898898Y-99574156D01*
X69837075Y-99424903D01*
X69789000Y-99183214D01*
X69789000Y-98936786D01*
X69837075Y-98695097D01*
X69931377Y-98467431D01*
X69931378Y-98467429D01*
X70068285Y-98262534D01*
X70242534Y-98088285D01*
X70447429Y-97951378D01*
X70675097Y-97857075D01*
X70916786Y-97809000D01*
X71163214Y-97809000D01*
X71404903Y-97857075D01*
X71404903Y-97857075D01*
G37*
G36*
X66404903Y-97857075D02*
G01*
X66632571Y-97951378D01*
X66837466Y-98088285D01*
X67011715Y-98262534D01*
X67148622Y-98467429D01*
X67148623Y-98467431D01*
X67242925Y-98695097D01*
X67291000Y-98936786D01*
X67291000Y-99183214D01*
X67242925Y-99424903D01*
X67181103Y-99574156D01*
X67148622Y-99652571D01*
X67011715Y-99857466D01*
X66837466Y-100031715D01*
X66632571Y-100168622D01*
X66632570Y-100168623D01*
X66632569Y-100168623D01*
X66404903Y-100262925D01*
X66163214Y-100311000D01*
X65916786Y-100311000D01*
X65675097Y-100262925D01*
X65447431Y-100168623D01*
X65447430Y-100168623D01*
X65447429Y-100168622D01*
X65242534Y-100031715D01*
X65068285Y-99857466D01*
X64931378Y-99652571D01*
X64898898Y-99574156D01*
X64837075Y-99424903D01*
X64789000Y-99183214D01*
X64789000Y-98936786D01*
X64837075Y-98695097D01*
X64931377Y-98467431D01*
X64931378Y-98467429D01*
X65068285Y-98262534D01*
X65242534Y-98088285D01*
X65447429Y-97951378D01*
X65675097Y-97857075D01*
X65916786Y-97809000D01*
X66163214Y-97809000D01*
X66404903Y-97857075D01*
X66404903Y-97857075D01*
G37*
G36*
X57434903Y-97857075D02*
G01*
X57662571Y-97951378D01*
X57867466Y-98088285D01*
X58041715Y-98262534D01*
X58178622Y-98467429D01*
X58178623Y-98467431D01*
X58272925Y-98695097D01*
X58321000Y-98936786D01*
X58321000Y-99183214D01*
X58272925Y-99424903D01*
X58211103Y-99574156D01*
X58178622Y-99652571D01*
X58041715Y-99857466D01*
X57867466Y-100031715D01*
X57662571Y-100168622D01*
X57662570Y-100168623D01*
X57662569Y-100168623D01*
X57434903Y-100262925D01*
X57193214Y-100311000D01*
X56946786Y-100311000D01*
X56705097Y-100262925D01*
X56477431Y-100168623D01*
X56477430Y-100168623D01*
X56477429Y-100168622D01*
X56272534Y-100031715D01*
X56098285Y-99857466D01*
X55961378Y-99652571D01*
X55928898Y-99574156D01*
X55867075Y-99424903D01*
X55819000Y-99183214D01*
X55819000Y-98936786D01*
X55867075Y-98695097D01*
X55961377Y-98467431D01*
X55961378Y-98467429D01*
X56098285Y-98262534D01*
X56272534Y-98088285D01*
X56477429Y-97951378D01*
X56705097Y-97857075D01*
X56946786Y-97809000D01*
X57193214Y-97809000D01*
X57434903Y-97857075D01*
X57434903Y-97857075D01*
G37*
G36*
X52434903Y-97857075D02*
G01*
X52662571Y-97951378D01*
X52867466Y-98088285D01*
X53041715Y-98262534D01*
X53178622Y-98467429D01*
X53178623Y-98467431D01*
X53272925Y-98695097D01*
X53321000Y-98936786D01*
X53321000Y-99183214D01*
X53272925Y-99424903D01*
X53211103Y-99574156D01*
X53178622Y-99652571D01*
X53041715Y-99857466D01*
X52867466Y-100031715D01*
X52662571Y-100168622D01*
X52662570Y-100168623D01*
X52662569Y-100168623D01*
X52434903Y-100262925D01*
X52193214Y-100311000D01*
X51946786Y-100311000D01*
X51705097Y-100262925D01*
X51477431Y-100168623D01*
X51477430Y-100168623D01*
X51477429Y-100168622D01*
X51272534Y-100031715D01*
X51098285Y-99857466D01*
X50961378Y-99652571D01*
X50928898Y-99574156D01*
X50867075Y-99424903D01*
X50819000Y-99183214D01*
X50819000Y-98936786D01*
X50867075Y-98695097D01*
X50961377Y-98467431D01*
X50961378Y-98467429D01*
X51098285Y-98262534D01*
X51272534Y-98088285D01*
X51477429Y-97951378D01*
X51705097Y-97857075D01*
X51946786Y-97809000D01*
X52193214Y-97809000D01*
X52434903Y-97857075D01*
X52434903Y-97857075D01*
G37*
G36*
X80330345Y-98143442D02*
G01*
X80420548Y-98152326D01*
X80594157Y-98204990D01*
X80754156Y-98290511D01*
X80797729Y-98326271D01*
X80894397Y-98405603D01*
X80945137Y-98467431D01*
X81009489Y-98545844D01*
X81095010Y-98705843D01*
X81147674Y-98879452D01*
X81165456Y-99060000D01*
X81147674Y-99240548D01*
X81095010Y-99414157D01*
X81009489Y-99574156D01*
X80973729Y-99617729D01*
X80894397Y-99714397D01*
X80797729Y-99793729D01*
X80754156Y-99829489D01*
X80594157Y-99915010D01*
X80420548Y-99967674D01*
X80330345Y-99976558D01*
X80285245Y-99981000D01*
X79734755Y-99981000D01*
X79689655Y-99976558D01*
X79599452Y-99967674D01*
X79425843Y-99915010D01*
X79265844Y-99829489D01*
X79222271Y-99793729D01*
X79125603Y-99714397D01*
X79046271Y-99617729D01*
X79010511Y-99574156D01*
X78924990Y-99414157D01*
X78872326Y-99240548D01*
X78854544Y-99060000D01*
X78872326Y-98879452D01*
X78924990Y-98705843D01*
X79010511Y-98545844D01*
X79074863Y-98467431D01*
X79125603Y-98405603D01*
X79222271Y-98326271D01*
X79265844Y-98290511D01*
X79425843Y-98204990D01*
X79599452Y-98152326D01*
X79689655Y-98143442D01*
X79734755Y-98139000D01*
X80285245Y-98139000D01*
X80330345Y-98143442D01*
X80330345Y-98143442D01*
G37*
G36*
X81019561Y-95602966D02*
G01*
X81052383Y-95612923D01*
X81082632Y-95629092D01*
X81109148Y-95650852D01*
X81130908Y-95677368D01*
X81147077Y-95707617D01*
X81157034Y-95740439D01*
X81161000Y-95780713D01*
X81161000Y-97259287D01*
X81157034Y-97299561D01*
X81147077Y-97332383D01*
X81130908Y-97362632D01*
X81109148Y-97389148D01*
X81082632Y-97410908D01*
X81052383Y-97427077D01*
X81019561Y-97437034D01*
X80979287Y-97441000D01*
X79040713Y-97441000D01*
X79000439Y-97437034D01*
X78967617Y-97427077D01*
X78937368Y-97410908D01*
X78910852Y-97389148D01*
X78889092Y-97362632D01*
X78872923Y-97332383D01*
X78862966Y-97299561D01*
X78859000Y-97259287D01*
X78859000Y-95780713D01*
X78862966Y-95740439D01*
X78872923Y-95707617D01*
X78889092Y-95677368D01*
X78910852Y-95650852D01*
X78937368Y-95629092D01*
X78967617Y-95612923D01*
X79000439Y-95602966D01*
X79040713Y-95599000D01*
X80979287Y-95599000D01*
X81019561Y-95602966D01*
X81019561Y-95602966D01*
G37*
G36*
X150224903Y-93967075D02*
G01*
X150452571Y-94061378D01*
X150657466Y-94198285D01*
X150831715Y-94372534D01*
X150831716Y-94372536D01*
X150968623Y-94577431D01*
X151062925Y-94805097D01*
X151111000Y-95046786D01*
X151111000Y-95293214D01*
X151062925Y-95534903D01*
X150977790Y-95740439D01*
X150968622Y-95762571D01*
X150831715Y-95967466D01*
X150657466Y-96141715D01*
X150452571Y-96278622D01*
X150452570Y-96278623D01*
X150452569Y-96278623D01*
X150224903Y-96372925D01*
X149983214Y-96421000D01*
X149736786Y-96421000D01*
X149495097Y-96372925D01*
X149267431Y-96278623D01*
X149267430Y-96278623D01*
X149267429Y-96278622D01*
X149062534Y-96141715D01*
X148888285Y-95967466D01*
X148751378Y-95762571D01*
X148742211Y-95740439D01*
X148657075Y-95534903D01*
X148609000Y-95293214D01*
X148609000Y-95046786D01*
X148657075Y-94805097D01*
X148751377Y-94577431D01*
X148888284Y-94372536D01*
X148888285Y-94372534D01*
X149062534Y-94198285D01*
X149267429Y-94061378D01*
X149495097Y-93967075D01*
X149736786Y-93919000D01*
X149983214Y-93919000D01*
X150224903Y-93967075D01*
X150224903Y-93967075D01*
G37*
G36*
X93074903Y-93967075D02*
G01*
X93302571Y-94061378D01*
X93507466Y-94198285D01*
X93681715Y-94372534D01*
X93681716Y-94372536D01*
X93818623Y-94577431D01*
X93912925Y-94805097D01*
X93961000Y-95046786D01*
X93961000Y-95293214D01*
X93912925Y-95534903D01*
X93827790Y-95740439D01*
X93818622Y-95762571D01*
X93681715Y-95967466D01*
X93507466Y-96141715D01*
X93302571Y-96278622D01*
X93302570Y-96278623D01*
X93302569Y-96278623D01*
X93074903Y-96372925D01*
X92833214Y-96421000D01*
X92586786Y-96421000D01*
X92345097Y-96372925D01*
X92117431Y-96278623D01*
X92117430Y-96278623D01*
X92117429Y-96278622D01*
X91912534Y-96141715D01*
X91738285Y-95967466D01*
X91601378Y-95762571D01*
X91592211Y-95740439D01*
X91507075Y-95534903D01*
X91459000Y-95293214D01*
X91459000Y-95046786D01*
X91507075Y-94805097D01*
X91601377Y-94577431D01*
X91738284Y-94372536D01*
X91738285Y-94372534D01*
X91912534Y-94198285D01*
X92117429Y-94061378D01*
X92345097Y-93967075D01*
X92586786Y-93919000D01*
X92833214Y-93919000D01*
X93074903Y-93967075D01*
X93074903Y-93967075D01*
G37*
G36*
X112124903Y-93967075D02*
G01*
X112352571Y-94061378D01*
X112557466Y-94198285D01*
X112731715Y-94372534D01*
X112731716Y-94372536D01*
X112868623Y-94577431D01*
X112962925Y-94805097D01*
X113011000Y-95046786D01*
X113011000Y-95293214D01*
X112962925Y-95534903D01*
X112877790Y-95740439D01*
X112868622Y-95762571D01*
X112731715Y-95967466D01*
X112557466Y-96141715D01*
X112352571Y-96278622D01*
X112352570Y-96278623D01*
X112352569Y-96278623D01*
X112124903Y-96372925D01*
X111883214Y-96421000D01*
X111636786Y-96421000D01*
X111395097Y-96372925D01*
X111167431Y-96278623D01*
X111167430Y-96278623D01*
X111167429Y-96278622D01*
X110962534Y-96141715D01*
X110788285Y-95967466D01*
X110651378Y-95762571D01*
X110642211Y-95740439D01*
X110557075Y-95534903D01*
X110509000Y-95293214D01*
X110509000Y-95046786D01*
X110557075Y-94805097D01*
X110651377Y-94577431D01*
X110788284Y-94372536D01*
X110788285Y-94372534D01*
X110962534Y-94198285D01*
X111167429Y-94061378D01*
X111395097Y-93967075D01*
X111636786Y-93919000D01*
X111883214Y-93919000D01*
X112124903Y-93967075D01*
X112124903Y-93967075D01*
G37*
G36*
X132444903Y-93967075D02*
G01*
X132672571Y-94061378D01*
X132877466Y-94198285D01*
X133051715Y-94372534D01*
X133051716Y-94372536D01*
X133188623Y-94577431D01*
X133282925Y-94805097D01*
X133331000Y-95046786D01*
X133331000Y-95293214D01*
X133282925Y-95534903D01*
X133197790Y-95740439D01*
X133188622Y-95762571D01*
X133051715Y-95967466D01*
X132877466Y-96141715D01*
X132672571Y-96278622D01*
X132672570Y-96278623D01*
X132672569Y-96278623D01*
X132444903Y-96372925D01*
X132203214Y-96421000D01*
X131956786Y-96421000D01*
X131715097Y-96372925D01*
X131487431Y-96278623D01*
X131487430Y-96278623D01*
X131487429Y-96278622D01*
X131282534Y-96141715D01*
X131108285Y-95967466D01*
X130971378Y-95762571D01*
X130962211Y-95740439D01*
X130877075Y-95534903D01*
X130829000Y-95293214D01*
X130829000Y-95046786D01*
X130877075Y-94805097D01*
X130971377Y-94577431D01*
X131108284Y-94372536D01*
X131108285Y-94372534D01*
X131282534Y-94198285D01*
X131487429Y-94061378D01*
X131715097Y-93967075D01*
X131956786Y-93919000D01*
X132203214Y-93919000D01*
X132444903Y-93967075D01*
X132444903Y-93967075D01*
G37*
G36*
X93074903Y-88967075D02*
G01*
X93302571Y-89061378D01*
X93507466Y-89198285D01*
X93681715Y-89372534D01*
X93818622Y-89577429D01*
X93912925Y-89805097D01*
X93961000Y-90046787D01*
X93961000Y-90293213D01*
X93912925Y-90534903D01*
X93818622Y-90762571D01*
X93681715Y-90967466D01*
X93507466Y-91141715D01*
X93302571Y-91278622D01*
X93302570Y-91278623D01*
X93302569Y-91278623D01*
X93074903Y-91372925D01*
X92833214Y-91421000D01*
X92586786Y-91421000D01*
X92345097Y-91372925D01*
X92117431Y-91278623D01*
X92117430Y-91278623D01*
X92117429Y-91278622D01*
X91912534Y-91141715D01*
X91738285Y-90967466D01*
X91601378Y-90762571D01*
X91507075Y-90534903D01*
X91459000Y-90293213D01*
X91459000Y-90046787D01*
X91507075Y-89805097D01*
X91601378Y-89577429D01*
X91738285Y-89372534D01*
X91912534Y-89198285D01*
X92117429Y-89061378D01*
X92345097Y-88967075D01*
X92586786Y-88919000D01*
X92833214Y-88919000D01*
X93074903Y-88967075D01*
X93074903Y-88967075D01*
G37*
G36*
X150224903Y-88967075D02*
G01*
X150452571Y-89061378D01*
X150657466Y-89198285D01*
X150831715Y-89372534D01*
X150968622Y-89577429D01*
X151062925Y-89805097D01*
X151111000Y-90046787D01*
X151111000Y-90293213D01*
X151062925Y-90534903D01*
X150968622Y-90762571D01*
X150831715Y-90967466D01*
X150657466Y-91141715D01*
X150452571Y-91278622D01*
X150452570Y-91278623D01*
X150452569Y-91278623D01*
X150224903Y-91372925D01*
X149983214Y-91421000D01*
X149736786Y-91421000D01*
X149495097Y-91372925D01*
X149267431Y-91278623D01*
X149267430Y-91278623D01*
X149267429Y-91278622D01*
X149062534Y-91141715D01*
X148888285Y-90967466D01*
X148751378Y-90762571D01*
X148657075Y-90534903D01*
X148609000Y-90293213D01*
X148609000Y-90046787D01*
X148657075Y-89805097D01*
X148751378Y-89577429D01*
X148888285Y-89372534D01*
X149062534Y-89198285D01*
X149267429Y-89061378D01*
X149495097Y-88967075D01*
X149736786Y-88919000D01*
X149983214Y-88919000D01*
X150224903Y-88967075D01*
X150224903Y-88967075D01*
G37*
G36*
X112124903Y-88967075D02*
G01*
X112352571Y-89061378D01*
X112557466Y-89198285D01*
X112731715Y-89372534D01*
X112868622Y-89577429D01*
X112962925Y-89805097D01*
X113011000Y-90046787D01*
X113011000Y-90293213D01*
X112962925Y-90534903D01*
X112868622Y-90762571D01*
X112731715Y-90967466D01*
X112557466Y-91141715D01*
X112352571Y-91278622D01*
X112352570Y-91278623D01*
X112352569Y-91278623D01*
X112124903Y-91372925D01*
X111883214Y-91421000D01*
X111636786Y-91421000D01*
X111395097Y-91372925D01*
X111167431Y-91278623D01*
X111167430Y-91278623D01*
X111167429Y-91278622D01*
X110962534Y-91141715D01*
X110788285Y-90967466D01*
X110651378Y-90762571D01*
X110557075Y-90534903D01*
X110509000Y-90293213D01*
X110509000Y-90046787D01*
X110557075Y-89805097D01*
X110651378Y-89577429D01*
X110788285Y-89372534D01*
X110962534Y-89198285D01*
X111167429Y-89061378D01*
X111395097Y-88967075D01*
X111636786Y-88919000D01*
X111883214Y-88919000D01*
X112124903Y-88967075D01*
X112124903Y-88967075D01*
G37*
G36*
X132444903Y-88967075D02*
G01*
X132672571Y-89061378D01*
X132877466Y-89198285D01*
X133051715Y-89372534D01*
X133188622Y-89577429D01*
X133282925Y-89805097D01*
X133331000Y-90046787D01*
X133331000Y-90293213D01*
X133282925Y-90534903D01*
X133188622Y-90762571D01*
X133051715Y-90967466D01*
X132877466Y-91141715D01*
X132672571Y-91278622D01*
X132672570Y-91278623D01*
X132672569Y-91278623D01*
X132444903Y-91372925D01*
X132203214Y-91421000D01*
X131956786Y-91421000D01*
X131715097Y-91372925D01*
X131487431Y-91278623D01*
X131487430Y-91278623D01*
X131487429Y-91278622D01*
X131282534Y-91141715D01*
X131108285Y-90967466D01*
X130971378Y-90762571D01*
X130877075Y-90534903D01*
X130829000Y-90293213D01*
X130829000Y-90046787D01*
X130877075Y-89805097D01*
X130971378Y-89577429D01*
X131108285Y-89372534D01*
X131282534Y-89198285D01*
X131487429Y-89061378D01*
X131715097Y-88967075D01*
X131956786Y-88919000D01*
X132203214Y-88919000D01*
X132444903Y-88967075D01*
X132444903Y-88967075D01*
G37*
G36*
X62594903Y-86427075D02*
G01*
X62730433Y-86483213D01*
X62822571Y-86521378D01*
X63027466Y-86658285D01*
X63201715Y-86832534D01*
X63338622Y-87037429D01*
X63432925Y-87265097D01*
X63481000Y-87506787D01*
X63481000Y-87753213D01*
X63432925Y-87994903D01*
X63338622Y-88222571D01*
X63201715Y-88427466D01*
X63027466Y-88601715D01*
X62822571Y-88738622D01*
X62822570Y-88738623D01*
X62822569Y-88738623D01*
X62594903Y-88832925D01*
X62353214Y-88881000D01*
X62106786Y-88881000D01*
X61865097Y-88832925D01*
X61637431Y-88738623D01*
X61637430Y-88738623D01*
X61637429Y-88738622D01*
X61432534Y-88601715D01*
X61258285Y-88427466D01*
X61121378Y-88222571D01*
X61027075Y-87994903D01*
X60979000Y-87753213D01*
X60979000Y-87506787D01*
X61027075Y-87265097D01*
X61121378Y-87037429D01*
X61258285Y-86832534D01*
X61432534Y-86658285D01*
X61637429Y-86521378D01*
X61729568Y-86483213D01*
X61865097Y-86427075D01*
X62106786Y-86379000D01*
X62353214Y-86379000D01*
X62594903Y-86427075D01*
X62594903Y-86427075D01*
G37*
G36*
X71484903Y-85157075D02*
G01*
X71712571Y-85251378D01*
X71917466Y-85388285D01*
X72091715Y-85562534D01*
X72228622Y-85767429D01*
X72322925Y-85995097D01*
X72371000Y-86236787D01*
X72371000Y-86483213D01*
X72322925Y-86724903D01*
X72228622Y-86952571D01*
X72091715Y-87157466D01*
X71917466Y-87331715D01*
X71712571Y-87468622D01*
X71712570Y-87468623D01*
X71712569Y-87468623D01*
X71484903Y-87562925D01*
X71243214Y-87611000D01*
X70996786Y-87611000D01*
X70755097Y-87562925D01*
X70527431Y-87468623D01*
X70527430Y-87468623D01*
X70527429Y-87468622D01*
X70322534Y-87331715D01*
X70148285Y-87157466D01*
X70011378Y-86952571D01*
X69917075Y-86724903D01*
X69869000Y-86483213D01*
X69869000Y-86236787D01*
X69917075Y-85995097D01*
X70011378Y-85767429D01*
X70148285Y-85562534D01*
X70322534Y-85388285D01*
X70527429Y-85251378D01*
X70755097Y-85157075D01*
X70996786Y-85109000D01*
X71243214Y-85109000D01*
X71484903Y-85157075D01*
X71484903Y-85157075D01*
G37*
G36*
X62594903Y-81427075D02*
G01*
X62730433Y-81483213D01*
X62822571Y-81521378D01*
X63027466Y-81658285D01*
X63201715Y-81832534D01*
X63338622Y-82037429D01*
X63432925Y-82265097D01*
X63481000Y-82506787D01*
X63481000Y-82753213D01*
X63432925Y-82994903D01*
X63338622Y-83222571D01*
X63201715Y-83427466D01*
X63027466Y-83601715D01*
X62822571Y-83738622D01*
X62822570Y-83738623D01*
X62822569Y-83738623D01*
X62594903Y-83832925D01*
X62353214Y-83881000D01*
X62106786Y-83881000D01*
X61865097Y-83832925D01*
X61637431Y-83738623D01*
X61637430Y-83738623D01*
X61637429Y-83738622D01*
X61432534Y-83601715D01*
X61258285Y-83427466D01*
X61121378Y-83222571D01*
X61027075Y-82994903D01*
X60979000Y-82753213D01*
X60979000Y-82506787D01*
X61027075Y-82265097D01*
X61121378Y-82037429D01*
X61258285Y-81832534D01*
X61432534Y-81658285D01*
X61637429Y-81521378D01*
X61729568Y-81483213D01*
X61865097Y-81427075D01*
X62106786Y-81379000D01*
X62353214Y-81379000D01*
X62594903Y-81427075D01*
X62594903Y-81427075D01*
G37*
G36*
X71484903Y-80157075D02*
G01*
X71712571Y-80251378D01*
X71917466Y-80388285D01*
X72091715Y-80562534D01*
X72228622Y-80767429D01*
X72322925Y-80995097D01*
X72371000Y-81236787D01*
X72371000Y-81483213D01*
X72322925Y-81724903D01*
X72228622Y-81952571D01*
X72091715Y-82157466D01*
X71917466Y-82331715D01*
X71712571Y-82468622D01*
X71712570Y-82468623D01*
X71712569Y-82468623D01*
X71484903Y-82562925D01*
X71243214Y-82611000D01*
X70996786Y-82611000D01*
X70755097Y-82562925D01*
X70527431Y-82468623D01*
X70527430Y-82468623D01*
X70527429Y-82468622D01*
X70322534Y-82331715D01*
X70148285Y-82157466D01*
X70011378Y-81952571D01*
X69917075Y-81724903D01*
X69869000Y-81483213D01*
X69869000Y-81236787D01*
X69917075Y-80995097D01*
X70011378Y-80767429D01*
X70148285Y-80562534D01*
X70322534Y-80388285D01*
X70527429Y-80251378D01*
X70755097Y-80157075D01*
X70996786Y-80109000D01*
X71243214Y-80109000D01*
X71484903Y-80157075D01*
X71484903Y-80157075D01*
G37*
G36*
X148841143Y-75372087D02*
G01*
X148997838Y-75436992D01*
X149138853Y-75531215D01*
X149258785Y-75651147D01*
X149353008Y-75792162D01*
X149417913Y-75948857D01*
X149451000Y-76115198D01*
X149451000Y-76284802D01*
X149417913Y-76451143D01*
X149353008Y-76607838D01*
X149258785Y-76748853D01*
X149138853Y-76868785D01*
X148997838Y-76963008D01*
X148841143Y-77027913D01*
X148674802Y-77061000D01*
X148505198Y-77061000D01*
X148338857Y-77027913D01*
X148182162Y-76963008D01*
X148041147Y-76868785D01*
X147921215Y-76748853D01*
X147826992Y-76607838D01*
X147762087Y-76451143D01*
X147729000Y-76284802D01*
X147729000Y-76115198D01*
X147762087Y-75948857D01*
X147826992Y-75792162D01*
X147921215Y-75651147D01*
X148041147Y-75531215D01*
X148182162Y-75436992D01*
X148338857Y-75372087D01*
X148505198Y-75339000D01*
X148674802Y-75339000D01*
X148841143Y-75372087D01*
X148841143Y-75372087D01*
G37*
G36*
X146301143Y-75372087D02*
G01*
X146457838Y-75436992D01*
X146598853Y-75531215D01*
X146718785Y-75651147D01*
X146813008Y-75792162D01*
X146877913Y-75948857D01*
X146911000Y-76115198D01*
X146911000Y-76284802D01*
X146877913Y-76451143D01*
X146813008Y-76607838D01*
X146718785Y-76748853D01*
X146598853Y-76868785D01*
X146457838Y-76963008D01*
X146301143Y-77027913D01*
X146134802Y-77061000D01*
X145965198Y-77061000D01*
X145798857Y-77027913D01*
X145642162Y-76963008D01*
X145501147Y-76868785D01*
X145381215Y-76748853D01*
X145286992Y-76607838D01*
X145222087Y-76451143D01*
X145189000Y-76284802D01*
X145189000Y-76115198D01*
X145222087Y-75948857D01*
X145286992Y-75792162D01*
X145381215Y-75651147D01*
X145501147Y-75531215D01*
X145642162Y-75436992D01*
X145798857Y-75372087D01*
X145965198Y-75339000D01*
X146134802Y-75339000D01*
X146301143Y-75372087D01*
X146301143Y-75372087D01*
G37*
G36*
X143761143Y-75372087D02*
G01*
X143917838Y-75436992D01*
X144058853Y-75531215D01*
X144178785Y-75651147D01*
X144273008Y-75792162D01*
X144337913Y-75948857D01*
X144371000Y-76115198D01*
X144371000Y-76284802D01*
X144337913Y-76451143D01*
X144273008Y-76607838D01*
X144178785Y-76748853D01*
X144058853Y-76868785D01*
X143917838Y-76963008D01*
X143761143Y-77027913D01*
X143594802Y-77061000D01*
X143425198Y-77061000D01*
X143258857Y-77027913D01*
X143102162Y-76963008D01*
X142961147Y-76868785D01*
X142841215Y-76748853D01*
X142746992Y-76607838D01*
X142682087Y-76451143D01*
X142649000Y-76284802D01*
X142649000Y-76115198D01*
X142682087Y-75948857D01*
X142746992Y-75792162D01*
X142841215Y-75651147D01*
X142961147Y-75531215D01*
X143102162Y-75436992D01*
X143258857Y-75372087D01*
X143425198Y-75339000D01*
X143594802Y-75339000D01*
X143761143Y-75372087D01*
X143761143Y-75372087D01*
G37*
G36*
X151381143Y-75372087D02*
G01*
X151537838Y-75436992D01*
X151678853Y-75531215D01*
X151798785Y-75651147D01*
X151893008Y-75792162D01*
X151957913Y-75948857D01*
X151991000Y-76115198D01*
X151991000Y-76284802D01*
X151957913Y-76451143D01*
X151893008Y-76607838D01*
X151798785Y-76748853D01*
X151678853Y-76868785D01*
X151537838Y-76963008D01*
X151381143Y-77027913D01*
X151214802Y-77061000D01*
X151045198Y-77061000D01*
X150878857Y-77027913D01*
X150722162Y-76963008D01*
X150581147Y-76868785D01*
X150461215Y-76748853D01*
X150366992Y-76607838D01*
X150302087Y-76451143D01*
X150269000Y-76284802D01*
X150269000Y-76115198D01*
X150302087Y-75948857D01*
X150366992Y-75792162D01*
X150461215Y-75651147D01*
X150581147Y-75531215D01*
X150722162Y-75436992D01*
X150878857Y-75372087D01*
X151045198Y-75339000D01*
X151214802Y-75339000D01*
X151381143Y-75372087D01*
X151381143Y-75372087D01*
G37*
G36*
X153921143Y-75372087D02*
G01*
X154077838Y-75436992D01*
X154218853Y-75531215D01*
X154338785Y-75651147D01*
X154433008Y-75792162D01*
X154497913Y-75948857D01*
X154531000Y-76115198D01*
X154531000Y-76284802D01*
X154497913Y-76451143D01*
X154433008Y-76607838D01*
X154338785Y-76748853D01*
X154218853Y-76868785D01*
X154077838Y-76963008D01*
X153921143Y-77027913D01*
X153754802Y-77061000D01*
X153585198Y-77061000D01*
X153418857Y-77027913D01*
X153262162Y-76963008D01*
X153121147Y-76868785D01*
X153001215Y-76748853D01*
X152906992Y-76607838D01*
X152842087Y-76451143D01*
X152809000Y-76284802D01*
X152809000Y-76115198D01*
X152842087Y-75948857D01*
X152906992Y-75792162D01*
X153001215Y-75651147D01*
X153121147Y-75531215D01*
X153262162Y-75436992D01*
X153418857Y-75372087D01*
X153585198Y-75339000D01*
X153754802Y-75339000D01*
X153921143Y-75372087D01*
X153921143Y-75372087D01*
G37*
G36*
X141221143Y-75372087D02*
G01*
X141377838Y-75436992D01*
X141518853Y-75531215D01*
X141638785Y-75651147D01*
X141733008Y-75792162D01*
X141797913Y-75948857D01*
X141831000Y-76115198D01*
X141831000Y-76284802D01*
X141797913Y-76451143D01*
X141733008Y-76607838D01*
X141638785Y-76748853D01*
X141518853Y-76868785D01*
X141377838Y-76963008D01*
X141221143Y-77027913D01*
X141054802Y-77061000D01*
X140885198Y-77061000D01*
X140718857Y-77027913D01*
X140562162Y-76963008D01*
X140421147Y-76868785D01*
X140301215Y-76748853D01*
X140206992Y-76607838D01*
X140142087Y-76451143D01*
X140109000Y-76284802D01*
X140109000Y-76115198D01*
X140142087Y-75948857D01*
X140206992Y-75792162D01*
X140301215Y-75651147D01*
X140421147Y-75531215D01*
X140562162Y-75436992D01*
X140718857Y-75372087D01*
X140885198Y-75339000D01*
X141054802Y-75339000D01*
X141221143Y-75372087D01*
X141221143Y-75372087D01*
G37*
G36*
X138681143Y-75372087D02*
G01*
X138837838Y-75436992D01*
X138978853Y-75531215D01*
X139098785Y-75651147D01*
X139193008Y-75792162D01*
X139257913Y-75948857D01*
X139291000Y-76115198D01*
X139291000Y-76284802D01*
X139257913Y-76451143D01*
X139193008Y-76607838D01*
X139098785Y-76748853D01*
X138978853Y-76868785D01*
X138837838Y-76963008D01*
X138681143Y-77027913D01*
X138514802Y-77061000D01*
X138345198Y-77061000D01*
X138178857Y-77027913D01*
X138022162Y-76963008D01*
X137881147Y-76868785D01*
X137761215Y-76748853D01*
X137666992Y-76607838D01*
X137602087Y-76451143D01*
X137569000Y-76284802D01*
X137569000Y-76115198D01*
X137602087Y-75948857D01*
X137666992Y-75792162D01*
X137761215Y-75651147D01*
X137881147Y-75531215D01*
X138022162Y-75436992D01*
X138178857Y-75372087D01*
X138345198Y-75339000D01*
X138514802Y-75339000D01*
X138681143Y-75372087D01*
X138681143Y-75372087D01*
G37*
G36*
X112011143Y-75372087D02*
G01*
X112167838Y-75436992D01*
X112308853Y-75531215D01*
X112428785Y-75651147D01*
X112523008Y-75792162D01*
X112587913Y-75948857D01*
X112621000Y-76115198D01*
X112621000Y-76284802D01*
X112587913Y-76451143D01*
X112523008Y-76607838D01*
X112428785Y-76748853D01*
X112308853Y-76868785D01*
X112167838Y-76963008D01*
X112011143Y-77027913D01*
X111844802Y-77061000D01*
X111675198Y-77061000D01*
X111508857Y-77027913D01*
X111352162Y-76963008D01*
X111211147Y-76868785D01*
X111091215Y-76748853D01*
X110996992Y-76607838D01*
X110932087Y-76451143D01*
X110899000Y-76284802D01*
X110899000Y-76115198D01*
X110932087Y-75948857D01*
X110996992Y-75792162D01*
X111091215Y-75651147D01*
X111211147Y-75531215D01*
X111352162Y-75436992D01*
X111508857Y-75372087D01*
X111675198Y-75339000D01*
X111844802Y-75339000D01*
X112011143Y-75372087D01*
X112011143Y-75372087D01*
G37*
G36*
X96771143Y-75372087D02*
G01*
X96927838Y-75436992D01*
X97068853Y-75531215D01*
X97188785Y-75651147D01*
X97283008Y-75792162D01*
X97347913Y-75948857D01*
X97381000Y-76115198D01*
X97381000Y-76284802D01*
X97347913Y-76451143D01*
X97283008Y-76607838D01*
X97188785Y-76748853D01*
X97068853Y-76868785D01*
X96927838Y-76963008D01*
X96771143Y-77027913D01*
X96604802Y-77061000D01*
X96435198Y-77061000D01*
X96268857Y-77027913D01*
X96112162Y-76963008D01*
X95971147Y-76868785D01*
X95851215Y-76748853D01*
X95756992Y-76607838D01*
X95692087Y-76451143D01*
X95659000Y-76284802D01*
X95659000Y-76115198D01*
X95692087Y-75948857D01*
X95756992Y-75792162D01*
X95851215Y-75651147D01*
X95971147Y-75531215D01*
X96112162Y-75436992D01*
X96268857Y-75372087D01*
X96435198Y-75339000D01*
X96604802Y-75339000D01*
X96771143Y-75372087D01*
X96771143Y-75372087D01*
G37*
G36*
X99311143Y-75372087D02*
G01*
X99467838Y-75436992D01*
X99608853Y-75531215D01*
X99728785Y-75651147D01*
X99823008Y-75792162D01*
X99887913Y-75948857D01*
X99921000Y-76115198D01*
X99921000Y-76284802D01*
X99887913Y-76451143D01*
X99823008Y-76607838D01*
X99728785Y-76748853D01*
X99608853Y-76868785D01*
X99467838Y-76963008D01*
X99311143Y-77027913D01*
X99144802Y-77061000D01*
X98975198Y-77061000D01*
X98808857Y-77027913D01*
X98652162Y-76963008D01*
X98511147Y-76868785D01*
X98391215Y-76748853D01*
X98296992Y-76607838D01*
X98232087Y-76451143D01*
X98199000Y-76284802D01*
X98199000Y-76115198D01*
X98232087Y-75948857D01*
X98296992Y-75792162D01*
X98391215Y-75651147D01*
X98511147Y-75531215D01*
X98652162Y-75436992D01*
X98808857Y-75372087D01*
X98975198Y-75339000D01*
X99144802Y-75339000D01*
X99311143Y-75372087D01*
X99311143Y-75372087D01*
G37*
G36*
X136751000Y-77061000D02*
G01*
X135029000Y-77061000D01*
X135029000Y-75339000D01*
X136751000Y-75339000D01*
X136751000Y-77061000D01*
X136751000Y-77061000D01*
G37*
G36*
X101851143Y-75372087D02*
G01*
X102007838Y-75436992D01*
X102148853Y-75531215D01*
X102268785Y-75651147D01*
X102363008Y-75792162D01*
X102427913Y-75948857D01*
X102461000Y-76115198D01*
X102461000Y-76284802D01*
X102427913Y-76451143D01*
X102363008Y-76607838D01*
X102268785Y-76748853D01*
X102148853Y-76868785D01*
X102007838Y-76963008D01*
X101851143Y-77027913D01*
X101684802Y-77061000D01*
X101515198Y-77061000D01*
X101348857Y-77027913D01*
X101192162Y-76963008D01*
X101051147Y-76868785D01*
X100931215Y-76748853D01*
X100836992Y-76607838D01*
X100772087Y-76451143D01*
X100739000Y-76284802D01*
X100739000Y-76115198D01*
X100772087Y-75948857D01*
X100836992Y-75792162D01*
X100931215Y-75651147D01*
X101051147Y-75531215D01*
X101192162Y-75436992D01*
X101348857Y-75372087D01*
X101515198Y-75339000D01*
X101684802Y-75339000D01*
X101851143Y-75372087D01*
X101851143Y-75372087D01*
G37*
G36*
X104391143Y-75372087D02*
G01*
X104547838Y-75436992D01*
X104688853Y-75531215D01*
X104808785Y-75651147D01*
X104903008Y-75792162D01*
X104967913Y-75948857D01*
X105001000Y-76115198D01*
X105001000Y-76284802D01*
X104967913Y-76451143D01*
X104903008Y-76607838D01*
X104808785Y-76748853D01*
X104688853Y-76868785D01*
X104547838Y-76963008D01*
X104391143Y-77027913D01*
X104224802Y-77061000D01*
X104055198Y-77061000D01*
X103888857Y-77027913D01*
X103732162Y-76963008D01*
X103591147Y-76868785D01*
X103471215Y-76748853D01*
X103376992Y-76607838D01*
X103312087Y-76451143D01*
X103279000Y-76284802D01*
X103279000Y-76115198D01*
X103312087Y-75948857D01*
X103376992Y-75792162D01*
X103471215Y-75651147D01*
X103591147Y-75531215D01*
X103732162Y-75436992D01*
X103888857Y-75372087D01*
X104055198Y-75339000D01*
X104224802Y-75339000D01*
X104391143Y-75372087D01*
X104391143Y-75372087D01*
G37*
G36*
X109471143Y-75372087D02*
G01*
X109627838Y-75436992D01*
X109768853Y-75531215D01*
X109888785Y-75651147D01*
X109983008Y-75792162D01*
X110047913Y-75948857D01*
X110081000Y-76115198D01*
X110081000Y-76284802D01*
X110047913Y-76451143D01*
X109983008Y-76607838D01*
X109888785Y-76748853D01*
X109768853Y-76868785D01*
X109627838Y-76963008D01*
X109471143Y-77027913D01*
X109304802Y-77061000D01*
X109135198Y-77061000D01*
X108968857Y-77027913D01*
X108812162Y-76963008D01*
X108671147Y-76868785D01*
X108551215Y-76748853D01*
X108456992Y-76607838D01*
X108392087Y-76451143D01*
X108359000Y-76284802D01*
X108359000Y-76115198D01*
X108392087Y-75948857D01*
X108456992Y-75792162D01*
X108551215Y-75651147D01*
X108671147Y-75531215D01*
X108812162Y-75436992D01*
X108968857Y-75372087D01*
X109135198Y-75339000D01*
X109304802Y-75339000D01*
X109471143Y-75372087D01*
X109471143Y-75372087D01*
G37*
G36*
X94841000Y-77061000D02*
G01*
X93119000Y-77061000D01*
X93119000Y-75339000D01*
X94841000Y-75339000D01*
X94841000Y-77061000D01*
X94841000Y-77061000D01*
G37*
G36*
X106931143Y-75372087D02*
G01*
X107087838Y-75436992D01*
X107228853Y-75531215D01*
X107348785Y-75651147D01*
X107443008Y-75792162D01*
X107507913Y-75948857D01*
X107541000Y-76115198D01*
X107541000Y-76284802D01*
X107507913Y-76451143D01*
X107443008Y-76607838D01*
X107348785Y-76748853D01*
X107228853Y-76868785D01*
X107087838Y-76963008D01*
X106931143Y-77027913D01*
X106764802Y-77061000D01*
X106595198Y-77061000D01*
X106428857Y-77027913D01*
X106272162Y-76963008D01*
X106131147Y-76868785D01*
X106011215Y-76748853D01*
X105916992Y-76607838D01*
X105852087Y-76451143D01*
X105819000Y-76284802D01*
X105819000Y-76115198D01*
X105852087Y-75948857D01*
X105916992Y-75792162D01*
X106011215Y-75651147D01*
X106131147Y-75531215D01*
X106272162Y-75436992D01*
X106428857Y-75372087D01*
X106595198Y-75339000D01*
X106764802Y-75339000D01*
X106931143Y-75372087D01*
X106931143Y-75372087D01*
G37*
G36*
X66326823Y-74091313D02*
G01*
X66487242Y-74139976D01*
X66554361Y-74175852D01*
X66635078Y-74218996D01*
X66764659Y-74325341D01*
X66871004Y-74454922D01*
X66871005Y-74454924D01*
X66950024Y-74602758D01*
X66998687Y-74763177D01*
X67015117Y-74930000D01*
X66998687Y-75096823D01*
X66950024Y-75257242D01*
X66909477Y-75333100D01*
X66871004Y-75405078D01*
X66764659Y-75534659D01*
X66635078Y-75641004D01*
X66635076Y-75641005D01*
X66487242Y-75720024D01*
X66326823Y-75768687D01*
X66201804Y-75781000D01*
X66118196Y-75781000D01*
X65993177Y-75768687D01*
X65832758Y-75720024D01*
X65684924Y-75641005D01*
X65684922Y-75641004D01*
X65555341Y-75534659D01*
X65448996Y-75405078D01*
X65410523Y-75333100D01*
X65369976Y-75257242D01*
X65321313Y-75096823D01*
X65304883Y-74930000D01*
X65321313Y-74763177D01*
X65369976Y-74602758D01*
X65448995Y-74454924D01*
X65448996Y-74454922D01*
X65555341Y-74325341D01*
X65684922Y-74218996D01*
X65765639Y-74175852D01*
X65832758Y-74139976D01*
X65993177Y-74091313D01*
X66118196Y-74079000D01*
X66201804Y-74079000D01*
X66326823Y-74091313D01*
X66326823Y-74091313D01*
G37*
G36*
X73908228Y-74111703D02*
G01*
X74063100Y-74175853D01*
X74202481Y-74268985D01*
X74321015Y-74387519D01*
X74414147Y-74526900D01*
X74478297Y-74681772D01*
X74511000Y-74846184D01*
X74511000Y-75013816D01*
X74478297Y-75178228D01*
X74414147Y-75333100D01*
X74321015Y-75472481D01*
X74202481Y-75591015D01*
X74063100Y-75684147D01*
X73908228Y-75748297D01*
X73743816Y-75781000D01*
X73576184Y-75781000D01*
X73411772Y-75748297D01*
X73256900Y-75684147D01*
X73117519Y-75591015D01*
X72998985Y-75472481D01*
X72905853Y-75333100D01*
X72841703Y-75178228D01*
X72809000Y-75013816D01*
X72809000Y-74846184D01*
X72841703Y-74681772D01*
X72905853Y-74526900D01*
X72998985Y-74387519D01*
X73117519Y-74268985D01*
X73256900Y-74175853D01*
X73411772Y-74111703D01*
X73576184Y-74079000D01*
X73743816Y-74079000D01*
X73908228Y-74111703D01*
X73908228Y-74111703D01*
G37*
G36*
X63031000Y-74861000D02*
G01*
X61429000Y-74861000D01*
X61429000Y-72459000D01*
X63031000Y-72459000D01*
X63031000Y-74861000D01*
X63031000Y-74861000D01*
G37*
G36*
X125803665Y-71642622D02*
G01*
X125877222Y-71649867D01*
X126018786Y-71692810D01*
X126149252Y-71762546D01*
X126179040Y-71786992D01*
X126263607Y-71856393D01*
X126333008Y-71940960D01*
X126357454Y-71970748D01*
X126427190Y-72101214D01*
X126470133Y-72242778D01*
X126484633Y-72390000D01*
X126470133Y-72537222D01*
X126427190Y-72678786D01*
X126357454Y-72809252D01*
X126333008Y-72839040D01*
X126263607Y-72923607D01*
X126203004Y-72973341D01*
X126149252Y-73017454D01*
X126018786Y-73087190D01*
X125877222Y-73130133D01*
X125803665Y-73137378D01*
X125766888Y-73141000D01*
X125693112Y-73141000D01*
X125656335Y-73137378D01*
X125582778Y-73130133D01*
X125441214Y-73087190D01*
X125310748Y-73017454D01*
X125256996Y-72973341D01*
X125196393Y-72923607D01*
X125126992Y-72839040D01*
X125102546Y-72809252D01*
X125032810Y-72678786D01*
X124989867Y-72537222D01*
X124975367Y-72390000D01*
X124989867Y-72242778D01*
X125032810Y-72101214D01*
X125102546Y-71970748D01*
X125126992Y-71940960D01*
X125196393Y-71856393D01*
X125280960Y-71786992D01*
X125310748Y-71762546D01*
X125441214Y-71692810D01*
X125582778Y-71649867D01*
X125656335Y-71642622D01*
X125693112Y-71639000D01*
X125766888Y-71639000D01*
X125803665Y-71642622D01*
X125803665Y-71642622D01*
G37*
G36*
X123409059Y-71667860D02*
G01*
X123469294Y-71692810D01*
X123545732Y-71724472D01*
X123668735Y-71806660D01*
X123773340Y-71911265D01*
X123855528Y-72034268D01*
X123912140Y-72170941D01*
X123941000Y-72316033D01*
X123941000Y-72463967D01*
X123912140Y-72609059D01*
X123855528Y-72745732D01*
X123773340Y-72868735D01*
X123668735Y-72973340D01*
X123545732Y-73055528D01*
X123545731Y-73055529D01*
X123545730Y-73055529D01*
X123409059Y-73112140D01*
X123263968Y-73141000D01*
X123116032Y-73141000D01*
X122970941Y-73112140D01*
X122834270Y-73055529D01*
X122834269Y-73055529D01*
X122834268Y-73055528D01*
X122711265Y-72973340D01*
X122606660Y-72868735D01*
X122524472Y-72745732D01*
X122467860Y-72609059D01*
X122439000Y-72463967D01*
X122439000Y-72316033D01*
X122467860Y-72170941D01*
X122524472Y-72034268D01*
X122606660Y-71911265D01*
X122711265Y-71806660D01*
X122834268Y-71724472D01*
X122910707Y-71692810D01*
X122970941Y-71667860D01*
X123116032Y-71639000D01*
X123263968Y-71639000D01*
X123409059Y-71667860D01*
X123409059Y-71667860D01*
G37*
G36*
X137411143Y-70292087D02*
G01*
X137567838Y-70356992D01*
X137708853Y-70451215D01*
X137828785Y-70571147D01*
X137923008Y-70712162D01*
X137987913Y-70868857D01*
X138021000Y-71035198D01*
X138021000Y-71204802D01*
X137987913Y-71371143D01*
X137923008Y-71527838D01*
X137828785Y-71668853D01*
X137708853Y-71788785D01*
X137567838Y-71883008D01*
X137411143Y-71947913D01*
X137244802Y-71981000D01*
X137075198Y-71981000D01*
X136908857Y-71947913D01*
X136752162Y-71883008D01*
X136611147Y-71788785D01*
X136491215Y-71668853D01*
X136396992Y-71527838D01*
X136332087Y-71371143D01*
X136299000Y-71204802D01*
X136299000Y-71035198D01*
X136332087Y-70868857D01*
X136396992Y-70712162D01*
X136491215Y-70571147D01*
X136611147Y-70451215D01*
X136752162Y-70356992D01*
X136908857Y-70292087D01*
X137075198Y-70259000D01*
X137244802Y-70259000D01*
X137411143Y-70292087D01*
X137411143Y-70292087D01*
G37*
G36*
X95501143Y-70292087D02*
G01*
X95657838Y-70356992D01*
X95798853Y-70451215D01*
X95918785Y-70571147D01*
X96013008Y-70712162D01*
X96077913Y-70868857D01*
X96111000Y-71035198D01*
X96111000Y-71204802D01*
X96077913Y-71371143D01*
X96013008Y-71527838D01*
X95918785Y-71668853D01*
X95798853Y-71788785D01*
X95657838Y-71883008D01*
X95501143Y-71947913D01*
X95334802Y-71981000D01*
X95165198Y-71981000D01*
X94998857Y-71947913D01*
X94842162Y-71883008D01*
X94701147Y-71788785D01*
X94581215Y-71668853D01*
X94486992Y-71527838D01*
X94422087Y-71371143D01*
X94389000Y-71204802D01*
X94389000Y-71035198D01*
X94422087Y-70868857D01*
X94486992Y-70712162D01*
X94581215Y-70571147D01*
X94701147Y-70451215D01*
X94842162Y-70356992D01*
X94998857Y-70292087D01*
X95165198Y-70259000D01*
X95334802Y-70259000D01*
X95501143Y-70292087D01*
X95501143Y-70292087D01*
G37*
G36*
X98041143Y-70292087D02*
G01*
X98197838Y-70356992D01*
X98338853Y-70451215D01*
X98458785Y-70571147D01*
X98553008Y-70712162D01*
X98617913Y-70868857D01*
X98651000Y-71035198D01*
X98651000Y-71204802D01*
X98617913Y-71371143D01*
X98553008Y-71527838D01*
X98458785Y-71668853D01*
X98338853Y-71788785D01*
X98197838Y-71883008D01*
X98041143Y-71947913D01*
X97874802Y-71981000D01*
X97705198Y-71981000D01*
X97538857Y-71947913D01*
X97382162Y-71883008D01*
X97241147Y-71788785D01*
X97121215Y-71668853D01*
X97026992Y-71527838D01*
X96962087Y-71371143D01*
X96929000Y-71204802D01*
X96929000Y-71035198D01*
X96962087Y-70868857D01*
X97026992Y-70712162D01*
X97121215Y-70571147D01*
X97241147Y-70451215D01*
X97382162Y-70356992D01*
X97538857Y-70292087D01*
X97705198Y-70259000D01*
X97874802Y-70259000D01*
X98041143Y-70292087D01*
X98041143Y-70292087D01*
G37*
G36*
X100581143Y-70292087D02*
G01*
X100737838Y-70356992D01*
X100878853Y-70451215D01*
X100998785Y-70571147D01*
X101093008Y-70712162D01*
X101157913Y-70868857D01*
X101191000Y-71035198D01*
X101191000Y-71204802D01*
X101157913Y-71371143D01*
X101093008Y-71527838D01*
X100998785Y-71668853D01*
X100878853Y-71788785D01*
X100737838Y-71883008D01*
X100581143Y-71947913D01*
X100414802Y-71981000D01*
X100245198Y-71981000D01*
X100078857Y-71947913D01*
X99922162Y-71883008D01*
X99781147Y-71788785D01*
X99661215Y-71668853D01*
X99566992Y-71527838D01*
X99502087Y-71371143D01*
X99469000Y-71204802D01*
X99469000Y-71035198D01*
X99502087Y-70868857D01*
X99566992Y-70712162D01*
X99661215Y-70571147D01*
X99781147Y-70451215D01*
X99922162Y-70356992D01*
X100078857Y-70292087D01*
X100245198Y-70259000D01*
X100414802Y-70259000D01*
X100581143Y-70292087D01*
X100581143Y-70292087D01*
G37*
G36*
X103121143Y-70292087D02*
G01*
X103277838Y-70356992D01*
X103418853Y-70451215D01*
X103538785Y-70571147D01*
X103633008Y-70712162D01*
X103697913Y-70868857D01*
X103731000Y-71035198D01*
X103731000Y-71204802D01*
X103697913Y-71371143D01*
X103633008Y-71527838D01*
X103538785Y-71668853D01*
X103418853Y-71788785D01*
X103277838Y-71883008D01*
X103121143Y-71947913D01*
X102954802Y-71981000D01*
X102785198Y-71981000D01*
X102618857Y-71947913D01*
X102462162Y-71883008D01*
X102321147Y-71788785D01*
X102201215Y-71668853D01*
X102106992Y-71527838D01*
X102042087Y-71371143D01*
X102009000Y-71204802D01*
X102009000Y-71035198D01*
X102042087Y-70868857D01*
X102106992Y-70712162D01*
X102201215Y-70571147D01*
X102321147Y-70451215D01*
X102462162Y-70356992D01*
X102618857Y-70292087D01*
X102785198Y-70259000D01*
X102954802Y-70259000D01*
X103121143Y-70292087D01*
X103121143Y-70292087D01*
G37*
G36*
X105661143Y-70292087D02*
G01*
X105817838Y-70356992D01*
X105958853Y-70451215D01*
X106078785Y-70571147D01*
X106173008Y-70712162D01*
X106237913Y-70868857D01*
X106271000Y-71035198D01*
X106271000Y-71204802D01*
X106237913Y-71371143D01*
X106173008Y-71527838D01*
X106078785Y-71668853D01*
X105958853Y-71788785D01*
X105817838Y-71883008D01*
X105661143Y-71947913D01*
X105494802Y-71981000D01*
X105325198Y-71981000D01*
X105158857Y-71947913D01*
X105002162Y-71883008D01*
X104861147Y-71788785D01*
X104741215Y-71668853D01*
X104646992Y-71527838D01*
X104582087Y-71371143D01*
X104549000Y-71204802D01*
X104549000Y-71035198D01*
X104582087Y-70868857D01*
X104646992Y-70712162D01*
X104741215Y-70571147D01*
X104861147Y-70451215D01*
X105002162Y-70356992D01*
X105158857Y-70292087D01*
X105325198Y-70259000D01*
X105494802Y-70259000D01*
X105661143Y-70292087D01*
X105661143Y-70292087D01*
G37*
G36*
X108201143Y-70292087D02*
G01*
X108357838Y-70356992D01*
X108498853Y-70451215D01*
X108618785Y-70571147D01*
X108713008Y-70712162D01*
X108777913Y-70868857D01*
X108811000Y-71035198D01*
X108811000Y-71204802D01*
X108777913Y-71371143D01*
X108713008Y-71527838D01*
X108618785Y-71668853D01*
X108498853Y-71788785D01*
X108357838Y-71883008D01*
X108201143Y-71947913D01*
X108034802Y-71981000D01*
X107865198Y-71981000D01*
X107698857Y-71947913D01*
X107542162Y-71883008D01*
X107401147Y-71788785D01*
X107281215Y-71668853D01*
X107186992Y-71527838D01*
X107122087Y-71371143D01*
X107089000Y-71204802D01*
X107089000Y-71035198D01*
X107122087Y-70868857D01*
X107186992Y-70712162D01*
X107281215Y-70571147D01*
X107401147Y-70451215D01*
X107542162Y-70356992D01*
X107698857Y-70292087D01*
X107865198Y-70259000D01*
X108034802Y-70259000D01*
X108201143Y-70292087D01*
X108201143Y-70292087D01*
G37*
G36*
X110741143Y-70292087D02*
G01*
X110897838Y-70356992D01*
X111038853Y-70451215D01*
X111158785Y-70571147D01*
X111253008Y-70712162D01*
X111317913Y-70868857D01*
X111351000Y-71035198D01*
X111351000Y-71204802D01*
X111317913Y-71371143D01*
X111253008Y-71527838D01*
X111158785Y-71668853D01*
X111038853Y-71788785D01*
X110897838Y-71883008D01*
X110741143Y-71947913D01*
X110574802Y-71981000D01*
X110405198Y-71981000D01*
X110238857Y-71947913D01*
X110082162Y-71883008D01*
X109941147Y-71788785D01*
X109821215Y-71668853D01*
X109726992Y-71527838D01*
X109662087Y-71371143D01*
X109629000Y-71204802D01*
X109629000Y-71035198D01*
X109662087Y-70868857D01*
X109726992Y-70712162D01*
X109821215Y-70571147D01*
X109941147Y-70451215D01*
X110082162Y-70356992D01*
X110238857Y-70292087D01*
X110405198Y-70259000D01*
X110574802Y-70259000D01*
X110741143Y-70292087D01*
X110741143Y-70292087D01*
G37*
G36*
X142491143Y-70292087D02*
G01*
X142647838Y-70356992D01*
X142788853Y-70451215D01*
X142908785Y-70571147D01*
X143003008Y-70712162D01*
X143067913Y-70868857D01*
X143101000Y-71035198D01*
X143101000Y-71204802D01*
X143067913Y-71371143D01*
X143003008Y-71527838D01*
X142908785Y-71668853D01*
X142788853Y-71788785D01*
X142647838Y-71883008D01*
X142491143Y-71947913D01*
X142324802Y-71981000D01*
X142155198Y-71981000D01*
X141988857Y-71947913D01*
X141832162Y-71883008D01*
X141691147Y-71788785D01*
X141571215Y-71668853D01*
X141476992Y-71527838D01*
X141412087Y-71371143D01*
X141379000Y-71204802D01*
X141379000Y-71035198D01*
X141412087Y-70868857D01*
X141476992Y-70712162D01*
X141571215Y-70571147D01*
X141691147Y-70451215D01*
X141832162Y-70356992D01*
X141988857Y-70292087D01*
X142155198Y-70259000D01*
X142324802Y-70259000D01*
X142491143Y-70292087D01*
X142491143Y-70292087D01*
G37*
G36*
X139951143Y-70292087D02*
G01*
X140107838Y-70356992D01*
X140248853Y-70451215D01*
X140368785Y-70571147D01*
X140463008Y-70712162D01*
X140527913Y-70868857D01*
X140561000Y-71035198D01*
X140561000Y-71204802D01*
X140527913Y-71371143D01*
X140463008Y-71527838D01*
X140368785Y-71668853D01*
X140248853Y-71788785D01*
X140107838Y-71883008D01*
X139951143Y-71947913D01*
X139784802Y-71981000D01*
X139615198Y-71981000D01*
X139448857Y-71947913D01*
X139292162Y-71883008D01*
X139151147Y-71788785D01*
X139031215Y-71668853D01*
X138936992Y-71527838D01*
X138872087Y-71371143D01*
X138839000Y-71204802D01*
X138839000Y-71035198D01*
X138872087Y-70868857D01*
X138936992Y-70712162D01*
X139031215Y-70571147D01*
X139151147Y-70451215D01*
X139292162Y-70356992D01*
X139448857Y-70292087D01*
X139615198Y-70259000D01*
X139784802Y-70259000D01*
X139951143Y-70292087D01*
X139951143Y-70292087D01*
G37*
G36*
X152651143Y-70292087D02*
G01*
X152807838Y-70356992D01*
X152948853Y-70451215D01*
X153068785Y-70571147D01*
X153163008Y-70712162D01*
X153227913Y-70868857D01*
X153261000Y-71035198D01*
X153261000Y-71204802D01*
X153227913Y-71371143D01*
X153163008Y-71527838D01*
X153068785Y-71668853D01*
X152948853Y-71788785D01*
X152807838Y-71883008D01*
X152651143Y-71947913D01*
X152484802Y-71981000D01*
X152315198Y-71981000D01*
X152148857Y-71947913D01*
X151992162Y-71883008D01*
X151851147Y-71788785D01*
X151731215Y-71668853D01*
X151636992Y-71527838D01*
X151572087Y-71371143D01*
X151539000Y-71204802D01*
X151539000Y-71035198D01*
X151572087Y-70868857D01*
X151636992Y-70712162D01*
X151731215Y-70571147D01*
X151851147Y-70451215D01*
X151992162Y-70356992D01*
X152148857Y-70292087D01*
X152315198Y-70259000D01*
X152484802Y-70259000D01*
X152651143Y-70292087D01*
X152651143Y-70292087D01*
G37*
G36*
X150111143Y-70292087D02*
G01*
X150267838Y-70356992D01*
X150408853Y-70451215D01*
X150528785Y-70571147D01*
X150623008Y-70712162D01*
X150687913Y-70868857D01*
X150721000Y-71035198D01*
X150721000Y-71204802D01*
X150687913Y-71371143D01*
X150623008Y-71527838D01*
X150528785Y-71668853D01*
X150408853Y-71788785D01*
X150267838Y-71883008D01*
X150111143Y-71947913D01*
X149944802Y-71981000D01*
X149775198Y-71981000D01*
X149608857Y-71947913D01*
X149452162Y-71883008D01*
X149311147Y-71788785D01*
X149191215Y-71668853D01*
X149096992Y-71527838D01*
X149032087Y-71371143D01*
X148999000Y-71204802D01*
X148999000Y-71035198D01*
X149032087Y-70868857D01*
X149096992Y-70712162D01*
X149191215Y-70571147D01*
X149311147Y-70451215D01*
X149452162Y-70356992D01*
X149608857Y-70292087D01*
X149775198Y-70259000D01*
X149944802Y-70259000D01*
X150111143Y-70292087D01*
X150111143Y-70292087D01*
G37*
G36*
X147571143Y-70292087D02*
G01*
X147727838Y-70356992D01*
X147868853Y-70451215D01*
X147988785Y-70571147D01*
X148083008Y-70712162D01*
X148147913Y-70868857D01*
X148181000Y-71035198D01*
X148181000Y-71204802D01*
X148147913Y-71371143D01*
X148083008Y-71527838D01*
X147988785Y-71668853D01*
X147868853Y-71788785D01*
X147727838Y-71883008D01*
X147571143Y-71947913D01*
X147404802Y-71981000D01*
X147235198Y-71981000D01*
X147068857Y-71947913D01*
X146912162Y-71883008D01*
X146771147Y-71788785D01*
X146651215Y-71668853D01*
X146556992Y-71527838D01*
X146492087Y-71371143D01*
X146459000Y-71204802D01*
X146459000Y-71035198D01*
X146492087Y-70868857D01*
X146556992Y-70712162D01*
X146651215Y-70571147D01*
X146771147Y-70451215D01*
X146912162Y-70356992D01*
X147068857Y-70292087D01*
X147235198Y-70259000D01*
X147404802Y-70259000D01*
X147571143Y-70292087D01*
X147571143Y-70292087D01*
G37*
G36*
X145031143Y-70292087D02*
G01*
X145187838Y-70356992D01*
X145328853Y-70451215D01*
X145448785Y-70571147D01*
X145543008Y-70712162D01*
X145607913Y-70868857D01*
X145641000Y-71035198D01*
X145641000Y-71204802D01*
X145607913Y-71371143D01*
X145543008Y-71527838D01*
X145448785Y-71668853D01*
X145328853Y-71788785D01*
X145187838Y-71883008D01*
X145031143Y-71947913D01*
X144864802Y-71981000D01*
X144695198Y-71981000D01*
X144528857Y-71947913D01*
X144372162Y-71883008D01*
X144231147Y-71788785D01*
X144111215Y-71668853D01*
X144016992Y-71527838D01*
X143952087Y-71371143D01*
X143919000Y-71204802D01*
X143919000Y-71035198D01*
X143952087Y-70868857D01*
X144016992Y-70712162D01*
X144111215Y-70571147D01*
X144231147Y-70451215D01*
X144372162Y-70356992D01*
X144528857Y-70292087D01*
X144695198Y-70259000D01*
X144864802Y-70259000D01*
X145031143Y-70292087D01*
X145031143Y-70292087D01*
G37*
G36*
X70173651Y-68222888D02*
G01*
X70484870Y-68317296D01*
X70771680Y-68470599D01*
X70771683Y-68470601D01*
X70771684Y-68470602D01*
X71023082Y-68676918D01*
X71226628Y-68924941D01*
X71229401Y-68928320D01*
X71382704Y-69215130D01*
X71477112Y-69526349D01*
X71508988Y-69850000D01*
X71477112Y-70173651D01*
X71382704Y-70484870D01*
X71229401Y-70771680D01*
X71229399Y-70771683D01*
X71229398Y-70771684D01*
X71023082Y-71023082D01*
X70801654Y-71204802D01*
X70771680Y-71229401D01*
X70484870Y-71382704D01*
X70173651Y-71477112D01*
X69931107Y-71501000D01*
X69768893Y-71501000D01*
X69526349Y-71477112D01*
X69215130Y-71382704D01*
X68928320Y-71229401D01*
X68898346Y-71204802D01*
X68676918Y-71023082D01*
X68470602Y-70771684D01*
X68470601Y-70771683D01*
X68470599Y-70771680D01*
X68317296Y-70484870D01*
X68222888Y-70173651D01*
X68191012Y-69850000D01*
X68222888Y-69526349D01*
X68317296Y-69215130D01*
X68470599Y-68928320D01*
X68473372Y-68924941D01*
X68676918Y-68676918D01*
X68928316Y-68470602D01*
X68928317Y-68470601D01*
X68928320Y-68470599D01*
X69215130Y-68317296D01*
X69526349Y-68222888D01*
X69768893Y-68199000D01*
X69931107Y-68199000D01*
X70173651Y-68222888D01*
X70173651Y-68222888D01*
G37*
G36*
X54974903Y-68567075D02*
G01*
X55202571Y-68661378D01*
X55407466Y-68798285D01*
X55581715Y-68972534D01*
X55718622Y-69177429D01*
X55718623Y-69177431D01*
X55812925Y-69405097D01*
X55861000Y-69646786D01*
X55861000Y-69893214D01*
X55812925Y-70134903D01*
X55761523Y-70259000D01*
X55718622Y-70362571D01*
X55581715Y-70567466D01*
X55407466Y-70741715D01*
X55202571Y-70878622D01*
X55202570Y-70878623D01*
X55202569Y-70878623D01*
X54974903Y-70972925D01*
X54733214Y-71021000D01*
X54486786Y-71021000D01*
X54245097Y-70972925D01*
X54017431Y-70878623D01*
X54017430Y-70878623D01*
X54017429Y-70878622D01*
X53812534Y-70741715D01*
X53638285Y-70567466D01*
X53501378Y-70362571D01*
X53458478Y-70259000D01*
X53407075Y-70134903D01*
X53359000Y-69893214D01*
X53359000Y-69646786D01*
X53407075Y-69405097D01*
X53501377Y-69177431D01*
X53501378Y-69177429D01*
X53638285Y-68972534D01*
X53812534Y-68798285D01*
X54017429Y-68661378D01*
X54245097Y-68567075D01*
X54486786Y-68519000D01*
X54733214Y-68519000D01*
X54974903Y-68567075D01*
X54974903Y-68567075D01*
G37*
G36*
X62100098Y-67940362D02*
G01*
X62224941Y-67992074D01*
X62224943Y-67992075D01*
X62337299Y-68067149D01*
X62432851Y-68162701D01*
X62507926Y-68275059D01*
X62559638Y-68399902D01*
X62586000Y-68532434D01*
X62586000Y-68667566D01*
X62559638Y-68800098D01*
X62507926Y-68924941D01*
X62507925Y-68924943D01*
X62432851Y-69037299D01*
X62337299Y-69132851D01*
X62224943Y-69207925D01*
X62224942Y-69207926D01*
X62224941Y-69207926D01*
X62100098Y-69259638D01*
X61967566Y-69286000D01*
X61832434Y-69286000D01*
X61699902Y-69259638D01*
X61575059Y-69207926D01*
X61575058Y-69207926D01*
X61575057Y-69207925D01*
X61462701Y-69132851D01*
X61367149Y-69037299D01*
X61292075Y-68924943D01*
X61292074Y-68924941D01*
X61240362Y-68800098D01*
X61214000Y-68667566D01*
X61214000Y-68532434D01*
X61240362Y-68399902D01*
X61292074Y-68275059D01*
X61367149Y-68162701D01*
X61462701Y-68067149D01*
X61575057Y-67992075D01*
X61575059Y-67992074D01*
X61699902Y-67940362D01*
X61832434Y-67914000D01*
X61967566Y-67914000D01*
X62100098Y-67940362D01*
X62100098Y-67940362D01*
G37*
G36*
X54974903Y-63567075D02*
G01*
X55065205Y-63604479D01*
X55202571Y-63661378D01*
X55407466Y-63798285D01*
X55581715Y-63972534D01*
X55718622Y-64177429D01*
X55812925Y-64405097D01*
X55861000Y-64646787D01*
X55861000Y-64893213D01*
X55812925Y-65134903D01*
X55718622Y-65362571D01*
X55581715Y-65567466D01*
X55407466Y-65741715D01*
X55202571Y-65878622D01*
X55202570Y-65878623D01*
X55202569Y-65878623D01*
X54974903Y-65972925D01*
X54733214Y-66021000D01*
X54486786Y-66021000D01*
X54245097Y-65972925D01*
X54017431Y-65878623D01*
X54017430Y-65878623D01*
X54017429Y-65878622D01*
X53812534Y-65741715D01*
X53638285Y-65567466D01*
X53501378Y-65362571D01*
X53407075Y-65134903D01*
X53359000Y-64893213D01*
X53359000Y-64646787D01*
X53407075Y-64405097D01*
X53501378Y-64177429D01*
X53638285Y-63972534D01*
X53812534Y-63798285D01*
X54017429Y-63661378D01*
X54154796Y-63604479D01*
X54245097Y-63567075D01*
X54486786Y-63519000D01*
X54733214Y-63519000D01*
X54974903Y-63567075D01*
X54974903Y-63567075D01*
G37*
G36*
X63700098Y-62840362D02*
G01*
X63824941Y-62892074D01*
X63824943Y-62892075D01*
X63933592Y-62964672D01*
X63937299Y-62967149D01*
X64032851Y-63062701D01*
X64107926Y-63175059D01*
X64159638Y-63299902D01*
X64186000Y-63432434D01*
X64186000Y-63567566D01*
X64159638Y-63700098D01*
X64150816Y-63721396D01*
X64107925Y-63824943D01*
X64032851Y-63937299D01*
X63937299Y-64032851D01*
X63824943Y-64107925D01*
X63824942Y-64107926D01*
X63824941Y-64107926D01*
X63700098Y-64159638D01*
X63567566Y-64186000D01*
X63432434Y-64186000D01*
X63299902Y-64159638D01*
X63175059Y-64107926D01*
X63175058Y-64107926D01*
X63175057Y-64107925D01*
X63062701Y-64032851D01*
X62967149Y-63937299D01*
X62892075Y-63824943D01*
X62849184Y-63721396D01*
X62840362Y-63700098D01*
X62814000Y-63567566D01*
X62814000Y-63432434D01*
X62840362Y-63299902D01*
X62892074Y-63175059D01*
X62967149Y-63062701D01*
X63062701Y-62967149D01*
X63066408Y-62964672D01*
X63175057Y-62892075D01*
X63175059Y-62892074D01*
X63299902Y-62840362D01*
X63432434Y-62814000D01*
X63567566Y-62814000D01*
X63700098Y-62840362D01*
X63700098Y-62840362D01*
G37*
G36*
X71501000Y-63881000D02*
G01*
X68199000Y-63881000D01*
X68199000Y-60579000D01*
X71501000Y-60579000D01*
X71501000Y-63881000D01*
X71501000Y-63881000D01*
G37*
G36*
X176832585Y-60708802D02*
G01*
X176982410Y-60738604D01*
X177264674Y-60855521D01*
X177518705Y-61025259D01*
X177734741Y-61241295D01*
X177904479Y-61495326D01*
X178021396Y-61777590D01*
X178081000Y-62077240D01*
X178081000Y-62382760D01*
X178021396Y-62682410D01*
X177904479Y-62964674D01*
X177734741Y-63218705D01*
X177518705Y-63434741D01*
X177264674Y-63604479D01*
X176982410Y-63721396D01*
X176832585Y-63751198D01*
X176682761Y-63781000D01*
X176377239Y-63781000D01*
X176227415Y-63751198D01*
X176077590Y-63721396D01*
X175795326Y-63604479D01*
X175541295Y-63434741D01*
X175325259Y-63218705D01*
X175155521Y-62964674D01*
X175038604Y-62682410D01*
X174979000Y-62382760D01*
X174979000Y-62077240D01*
X175038604Y-61777590D01*
X175155521Y-61495326D01*
X175325259Y-61241295D01*
X175541295Y-61025259D01*
X175795326Y-60855521D01*
X176077590Y-60738604D01*
X176227415Y-60708802D01*
X176377239Y-60679000D01*
X176682761Y-60679000D01*
X176832585Y-60708802D01*
X176832585Y-60708802D01*
G37*
G36*
X62761000Y-53871000D02*
G01*
X59159000Y-53871000D01*
X59159000Y-50269000D01*
X62761000Y-50269000D01*
X62761000Y-53871000D01*
X62761000Y-53871000D01*
G37*
G36*
X57386366Y-47285695D02*
G01*
X57543460Y-47333349D01*
X57688231Y-47410731D01*
X57815128Y-47514872D01*
X57919269Y-47641769D01*
X57996651Y-47786540D01*
X58044305Y-47943634D01*
X58061000Y-48113140D01*
X58061000Y-50026860D01*
X58044305Y-50196366D01*
X57996651Y-50353460D01*
X57919269Y-50498231D01*
X57815128Y-50625128D01*
X57688231Y-50729269D01*
X57543460Y-50806651D01*
X57386366Y-50854305D01*
X57216860Y-50871000D01*
X55303140Y-50871000D01*
X55133634Y-50854305D01*
X54976540Y-50806651D01*
X54831769Y-50729269D01*
X54704872Y-50625128D01*
X54600731Y-50498231D01*
X54523349Y-50353460D01*
X54475695Y-50196366D01*
X54459000Y-50026860D01*
X54459000Y-48113140D01*
X54475695Y-47943634D01*
X54523349Y-47786540D01*
X54600731Y-47641769D01*
X54704872Y-47514872D01*
X54831769Y-47410731D01*
X54976540Y-47333349D01*
X55133634Y-47285695D01*
X55303140Y-47269000D01*
X57216860Y-47269000D01*
X57386366Y-47285695D01*
X57386366Y-47285695D01*
G37*
G36*
X168793241Y-45874760D02*
G01*
X169057305Y-45984139D01*
X169294958Y-46142934D01*
X169497066Y-46345042D01*
X169655861Y-46582695D01*
X169765240Y-46846759D01*
X169821000Y-47127088D01*
X169821000Y-47412912D01*
X169765240Y-47693241D01*
X169655861Y-47957305D01*
X169497066Y-48194958D01*
X169294958Y-48397066D01*
X169057305Y-48555861D01*
X168793241Y-48665240D01*
X168512912Y-48721000D01*
X168227088Y-48721000D01*
X167946759Y-48665240D01*
X167682695Y-48555861D01*
X167445042Y-48397066D01*
X167242934Y-48194958D01*
X167084139Y-47957305D01*
X166974760Y-47693241D01*
X166919000Y-47412912D01*
X166919000Y-47127088D01*
X166974760Y-46846759D01*
X167084139Y-46582695D01*
X167242934Y-46345042D01*
X167445042Y-46142934D01*
X167682695Y-45984139D01*
X167946759Y-45874760D01*
X168227088Y-45819000D01*
X168512912Y-45819000D01*
X168793241Y-45874760D01*
X168793241Y-45874760D01*
G37*
G36*
X178953241Y-45874760D02*
G01*
X179217305Y-45984139D01*
X179454958Y-46142934D01*
X179657066Y-46345042D01*
X179815861Y-46582695D01*
X179925240Y-46846759D01*
X179981000Y-47127088D01*
X179981000Y-47412912D01*
X179925240Y-47693241D01*
X179815861Y-47957305D01*
X179657066Y-48194958D01*
X179454958Y-48397066D01*
X179217305Y-48555861D01*
X178953241Y-48665240D01*
X178672912Y-48721000D01*
X178387088Y-48721000D01*
X178106759Y-48665240D01*
X177842695Y-48555861D01*
X177605042Y-48397066D01*
X177402934Y-48194958D01*
X177244139Y-47957305D01*
X177134760Y-47693241D01*
X177079000Y-47412912D01*
X177079000Y-47127088D01*
X177134760Y-46846759D01*
X177244139Y-46582695D01*
X177402934Y-46345042D01*
X177605042Y-46142934D01*
X177842695Y-45984139D01*
X178106759Y-45874760D01*
X178387088Y-45819000D01*
X178672912Y-45819000D01*
X178953241Y-45874760D01*
X178953241Y-45874760D01*
G37*
G36*
X70016823Y-46151313D02*
G01*
X70177242Y-46199976D01*
X70309906Y-46270886D01*
X70325078Y-46278996D01*
X70454659Y-46385341D01*
X70561004Y-46514922D01*
X70561005Y-46514924D01*
X70640024Y-46662758D01*
X70688687Y-46823177D01*
X70705117Y-46990000D01*
X70688687Y-47156823D01*
X70654658Y-47269000D01*
X70644107Y-47303784D01*
X70640024Y-47317242D01*
X70629171Y-47337546D01*
X70561004Y-47465078D01*
X70454659Y-47594659D01*
X70325078Y-47701004D01*
X70325076Y-47701005D01*
X70177242Y-47780024D01*
X70016823Y-47828687D01*
X69891804Y-47841000D01*
X69808196Y-47841000D01*
X69683177Y-47828687D01*
X69522758Y-47780024D01*
X69374924Y-47701005D01*
X69374922Y-47701004D01*
X69245341Y-47594659D01*
X69138996Y-47465078D01*
X69070829Y-47337546D01*
X69059976Y-47317242D01*
X69055894Y-47303784D01*
X69045342Y-47269000D01*
X69011313Y-47156823D01*
X68994883Y-46990000D01*
X69011313Y-46823177D01*
X69059976Y-46662758D01*
X69138995Y-46514924D01*
X69138996Y-46514922D01*
X69245341Y-46385341D01*
X69374922Y-46278996D01*
X69390094Y-46270886D01*
X69522758Y-46199976D01*
X69683177Y-46151313D01*
X69808196Y-46139000D01*
X69891804Y-46139000D01*
X70016823Y-46151313D01*
X70016823Y-46151313D01*
G37*
G36*
X62186979Y-44533293D02*
G01*
X62320625Y-44573834D01*
X62443784Y-44639664D01*
X62551740Y-44728260D01*
X62640336Y-44836216D01*
X62706166Y-44959375D01*
X62746707Y-45093021D01*
X62761000Y-45238140D01*
X62761000Y-46901860D01*
X62746707Y-47046979D01*
X62706166Y-47180625D01*
X62640336Y-47303784D01*
X62551740Y-47411740D01*
X62443784Y-47500336D01*
X62320625Y-47566166D01*
X62186979Y-47606707D01*
X62041860Y-47621000D01*
X59878140Y-47621000D01*
X59733021Y-47606707D01*
X59599375Y-47566166D01*
X59476216Y-47500336D01*
X59368260Y-47411740D01*
X59279664Y-47303784D01*
X59213834Y-47180625D01*
X59173293Y-47046979D01*
X59159000Y-46901860D01*
X59159000Y-45238140D01*
X59173293Y-45093021D01*
X59213834Y-44959375D01*
X59279664Y-44836216D01*
X59368260Y-44728260D01*
X59476216Y-44639664D01*
X59599375Y-44573834D01*
X59733021Y-44533293D01*
X59878140Y-44519000D01*
X62041860Y-44519000D01*
X62186979Y-44533293D01*
X62186979Y-44533293D01*
G37*
G36*
X166793241Y-37974760D02*
G01*
X167057305Y-38084139D01*
X167294958Y-38242934D01*
X167497066Y-38445042D01*
X167655861Y-38682695D01*
X167765240Y-38946759D01*
X167821000Y-39227088D01*
X167821000Y-39512912D01*
X167765240Y-39793241D01*
X167655861Y-40057305D01*
X167497066Y-40294958D01*
X167450559Y-40341465D01*
X167435014Y-40360407D01*
X167423463Y-40382018D01*
X167416350Y-40405467D01*
X167413948Y-40429853D01*
X167416350Y-40454239D01*
X167423463Y-40477688D01*
X167435014Y-40499299D01*
X167450559Y-40518241D01*
X167469501Y-40533786D01*
X167491112Y-40545337D01*
X167514561Y-40552450D01*
X167538947Y-40554852D01*
X167563333Y-40552450D01*
X167586782Y-40545337D01*
X167608393Y-40533786D01*
X167682695Y-40484139D01*
X167946759Y-40374760D01*
X168227088Y-40319000D01*
X168512912Y-40319000D01*
X168793241Y-40374760D01*
X169057305Y-40484139D01*
X169294958Y-40642934D01*
X169497066Y-40845042D01*
X169655861Y-41082695D01*
X169765240Y-41346759D01*
X169821000Y-41627088D01*
X169821000Y-41912912D01*
X169765240Y-42193241D01*
X169655861Y-42457305D01*
X169497066Y-42694958D01*
X169294958Y-42897066D01*
X169057305Y-43055861D01*
X168793241Y-43165240D01*
X168512912Y-43221000D01*
X168227088Y-43221000D01*
X167946759Y-43165240D01*
X167682695Y-43055861D01*
X167445042Y-42897066D01*
X167242934Y-42694958D01*
X167084139Y-42457305D01*
X166974760Y-42193241D01*
X166919000Y-41912912D01*
X166919000Y-41627088D01*
X166974760Y-41346759D01*
X167084139Y-41082695D01*
X167242934Y-40845042D01*
X167289441Y-40798535D01*
X167304986Y-40779593D01*
X167316537Y-40757982D01*
X167323650Y-40734533D01*
X167326052Y-40710147D01*
X167323650Y-40685761D01*
X167316537Y-40662312D01*
X167304986Y-40640701D01*
X167289441Y-40621759D01*
X167270499Y-40606214D01*
X167248888Y-40594663D01*
X167225439Y-40587550D01*
X167201053Y-40585148D01*
X167176667Y-40587550D01*
X167153218Y-40594663D01*
X167131607Y-40606214D01*
X167057305Y-40655861D01*
X166793241Y-40765240D01*
X166512912Y-40821000D01*
X166227088Y-40821000D01*
X165946759Y-40765240D01*
X165682695Y-40655861D01*
X165445042Y-40497066D01*
X165242934Y-40294958D01*
X165084139Y-40057305D01*
X164974760Y-39793241D01*
X164919000Y-39512912D01*
X164919000Y-39227088D01*
X164974760Y-38946759D01*
X165084139Y-38682695D01*
X165242934Y-38445042D01*
X165445042Y-38242934D01*
X165682695Y-38084139D01*
X165946759Y-37974760D01*
X166227088Y-37919000D01*
X166512912Y-37919000D01*
X166793241Y-37974760D01*
X166793241Y-37974760D01*
G37*
G36*
X176953241Y-37974760D02*
G01*
X177217305Y-38084139D01*
X177454958Y-38242934D01*
X177657066Y-38445042D01*
X177815861Y-38682695D01*
X177925240Y-38946759D01*
X177981000Y-39227088D01*
X177981000Y-39512912D01*
X177925240Y-39793241D01*
X177815861Y-40057305D01*
X177657066Y-40294958D01*
X177610559Y-40341465D01*
X177595014Y-40360407D01*
X177583463Y-40382018D01*
X177576350Y-40405467D01*
X177573948Y-40429853D01*
X177576350Y-40454239D01*
X177583463Y-40477688D01*
X177595014Y-40499299D01*
X177610559Y-40518241D01*
X177629501Y-40533786D01*
X177651112Y-40545337D01*
X177674561Y-40552450D01*
X177698947Y-40554852D01*
X177723333Y-40552450D01*
X177746782Y-40545337D01*
X177768393Y-40533786D01*
X177842695Y-40484139D01*
X178106759Y-40374760D01*
X178387088Y-40319000D01*
X178672912Y-40319000D01*
X178953241Y-40374760D01*
X179217305Y-40484139D01*
X179454958Y-40642934D01*
X179657066Y-40845042D01*
X179815861Y-41082695D01*
X179925240Y-41346759D01*
X179981000Y-41627088D01*
X179981000Y-41912912D01*
X179925240Y-42193241D01*
X179815861Y-42457305D01*
X179657066Y-42694958D01*
X179454958Y-42897066D01*
X179217305Y-43055861D01*
X178953241Y-43165240D01*
X178672912Y-43221000D01*
X178387088Y-43221000D01*
X178106759Y-43165240D01*
X177842695Y-43055861D01*
X177605042Y-42897066D01*
X177402934Y-42694958D01*
X177244139Y-42457305D01*
X177134760Y-42193241D01*
X177079000Y-41912912D01*
X177079000Y-41627088D01*
X177134760Y-41346759D01*
X177244139Y-41082695D01*
X177402934Y-40845042D01*
X177449441Y-40798535D01*
X177464986Y-40779593D01*
X177476537Y-40757982D01*
X177483650Y-40734533D01*
X177486052Y-40710147D01*
X177483650Y-40685761D01*
X177476537Y-40662312D01*
X177464986Y-40640701D01*
X177449441Y-40621759D01*
X177430499Y-40606214D01*
X177408888Y-40594663D01*
X177385439Y-40587550D01*
X177361053Y-40585148D01*
X177336667Y-40587550D01*
X177313218Y-40594663D01*
X177291607Y-40606214D01*
X177217305Y-40655861D01*
X176953241Y-40765240D01*
X176672912Y-40821000D01*
X176387088Y-40821000D01*
X176106759Y-40765240D01*
X175842695Y-40655861D01*
X175605042Y-40497066D01*
X175402934Y-40294958D01*
X175244139Y-40057305D01*
X175134760Y-39793241D01*
X175079000Y-39512912D01*
X175079000Y-39227088D01*
X175134760Y-38946759D01*
X175244139Y-38682695D01*
X175402934Y-38445042D01*
X175605042Y-38242934D01*
X175842695Y-38084139D01*
X176106759Y-37974760D01*
X176387088Y-37919000D01*
X176672912Y-37919000D01*
X176953241Y-37974760D01*
X176953241Y-37974760D01*
G37*
G36*
X156436572Y-40710147D02*
G01*
X156566153Y-40735922D01*
X156619410Y-40757982D01*
X156788359Y-40827963D01*
X156988342Y-40961587D01*
X157158413Y-41131658D01*
X157292037Y-41331641D01*
X157345953Y-41461806D01*
X157384078Y-41553847D01*
X157384199Y-41554454D01*
X157431000Y-41789741D01*
X157431000Y-42030259D01*
X157384078Y-42266152D01*
X157292037Y-42488359D01*
X157158413Y-42688342D01*
X156988342Y-42858413D01*
X156788359Y-42992037D01*
X156658194Y-43045953D01*
X156566153Y-43084078D01*
X156448205Y-43107539D01*
X156330259Y-43131000D01*
X156089741Y-43131000D01*
X155971795Y-43107539D01*
X155853847Y-43084078D01*
X155761806Y-43045953D01*
X155631641Y-42992037D01*
X155431658Y-42858413D01*
X155261587Y-42688342D01*
X155127963Y-42488359D01*
X155035922Y-42266152D01*
X154989000Y-42030259D01*
X154989000Y-41789741D01*
X155035801Y-41554454D01*
X155035922Y-41553847D01*
X155074047Y-41461806D01*
X155127963Y-41331641D01*
X155261587Y-41131658D01*
X155431658Y-40961587D01*
X155631641Y-40827963D01*
X155800590Y-40757982D01*
X155853847Y-40735922D01*
X155983428Y-40710147D01*
X156089741Y-40689000D01*
X156330259Y-40689000D01*
X156436572Y-40710147D01*
X156436572Y-40710147D01*
G37*
G36*
X136116572Y-40710147D02*
G01*
X136246153Y-40735922D01*
X136299410Y-40757982D01*
X136468359Y-40827963D01*
X136668342Y-40961587D01*
X136838413Y-41131658D01*
X136972037Y-41331641D01*
X137025953Y-41461806D01*
X137064078Y-41553847D01*
X137064199Y-41554454D01*
X137111000Y-41789741D01*
X137111000Y-42030259D01*
X137064078Y-42266152D01*
X136972037Y-42488359D01*
X136838413Y-42688342D01*
X136668342Y-42858413D01*
X136468359Y-42992037D01*
X136338194Y-43045953D01*
X136246153Y-43084078D01*
X136128205Y-43107539D01*
X136010259Y-43131000D01*
X135769741Y-43131000D01*
X135651795Y-43107539D01*
X135533847Y-43084078D01*
X135441806Y-43045953D01*
X135311641Y-42992037D01*
X135111658Y-42858413D01*
X134941587Y-42688342D01*
X134807963Y-42488359D01*
X134715922Y-42266152D01*
X134669000Y-42030259D01*
X134669000Y-41789741D01*
X134715801Y-41554454D01*
X134715922Y-41553847D01*
X134754047Y-41461806D01*
X134807963Y-41331641D01*
X134941587Y-41131658D01*
X135111658Y-40961587D01*
X135311641Y-40827963D01*
X135480590Y-40757982D01*
X135533847Y-40735922D01*
X135663428Y-40710147D01*
X135769741Y-40689000D01*
X136010259Y-40689000D01*
X136116572Y-40710147D01*
X136116572Y-40710147D01*
G37*
G36*
X115796572Y-40710147D02*
G01*
X115926153Y-40735922D01*
X115979410Y-40757982D01*
X116148359Y-40827963D01*
X116348342Y-40961587D01*
X116518413Y-41131658D01*
X116652037Y-41331641D01*
X116705953Y-41461806D01*
X116744078Y-41553847D01*
X116744199Y-41554454D01*
X116791000Y-41789741D01*
X116791000Y-42030259D01*
X116744078Y-42266152D01*
X116652037Y-42488359D01*
X116518413Y-42688342D01*
X116348342Y-42858413D01*
X116148359Y-42992037D01*
X116018194Y-43045953D01*
X115926153Y-43084078D01*
X115808205Y-43107539D01*
X115690259Y-43131000D01*
X115449741Y-43131000D01*
X115331795Y-43107539D01*
X115213847Y-43084078D01*
X115121806Y-43045953D01*
X114991641Y-42992037D01*
X114791658Y-42858413D01*
X114621587Y-42688342D01*
X114487963Y-42488359D01*
X114395922Y-42266152D01*
X114349000Y-42030259D01*
X114349000Y-41789741D01*
X114395801Y-41554454D01*
X114395922Y-41553847D01*
X114434047Y-41461806D01*
X114487963Y-41331641D01*
X114621587Y-41131658D01*
X114791658Y-40961587D01*
X114991641Y-40827963D01*
X115160590Y-40757982D01*
X115213847Y-40735922D01*
X115343428Y-40710147D01*
X115449741Y-40689000D01*
X115690259Y-40689000D01*
X115796572Y-40710147D01*
X115796572Y-40710147D01*
G37*
G36*
X110796572Y-40710147D02*
G01*
X110926153Y-40735922D01*
X110979410Y-40757982D01*
X111148359Y-40827963D01*
X111348342Y-40961587D01*
X111518413Y-41131658D01*
X111652037Y-41331641D01*
X111705953Y-41461806D01*
X111744078Y-41553847D01*
X111744199Y-41554454D01*
X111791000Y-41789741D01*
X111791000Y-42030259D01*
X111744078Y-42266152D01*
X111652037Y-42488359D01*
X111518413Y-42688342D01*
X111348342Y-42858413D01*
X111148359Y-42992037D01*
X111018194Y-43045953D01*
X110926153Y-43084078D01*
X110808205Y-43107539D01*
X110690259Y-43131000D01*
X110449741Y-43131000D01*
X110331795Y-43107539D01*
X110213847Y-43084078D01*
X110121806Y-43045953D01*
X109991641Y-42992037D01*
X109791658Y-42858413D01*
X109621587Y-42688342D01*
X109487963Y-42488359D01*
X109395922Y-42266152D01*
X109349000Y-42030259D01*
X109349000Y-41789741D01*
X109395801Y-41554454D01*
X109395922Y-41553847D01*
X109434047Y-41461806D01*
X109487963Y-41331641D01*
X109621587Y-41131658D01*
X109791658Y-40961587D01*
X109991641Y-40827963D01*
X110160590Y-40757982D01*
X110213847Y-40735922D01*
X110343428Y-40710147D01*
X110449741Y-40689000D01*
X110690259Y-40689000D01*
X110796572Y-40710147D01*
X110796572Y-40710147D01*
G37*
G36*
X105796572Y-40710147D02*
G01*
X105926153Y-40735922D01*
X105979410Y-40757982D01*
X106148359Y-40827963D01*
X106348342Y-40961587D01*
X106518413Y-41131658D01*
X106652037Y-41331641D01*
X106705953Y-41461806D01*
X106744078Y-41553847D01*
X106744199Y-41554454D01*
X106791000Y-41789741D01*
X106791000Y-42030259D01*
X106744078Y-42266152D01*
X106652037Y-42488359D01*
X106518413Y-42688342D01*
X106348342Y-42858413D01*
X106148359Y-42992037D01*
X106018194Y-43045953D01*
X105926153Y-43084078D01*
X105808205Y-43107539D01*
X105690259Y-43131000D01*
X105449741Y-43131000D01*
X105331795Y-43107539D01*
X105213847Y-43084078D01*
X105121806Y-43045953D01*
X104991641Y-42992037D01*
X104791658Y-42858413D01*
X104621587Y-42688342D01*
X104487963Y-42488359D01*
X104395922Y-42266152D01*
X104349000Y-42030259D01*
X104349000Y-41789741D01*
X104395801Y-41554454D01*
X104395922Y-41553847D01*
X104434047Y-41461806D01*
X104487963Y-41331641D01*
X104621587Y-41131658D01*
X104791658Y-40961587D01*
X104991641Y-40827963D01*
X105160590Y-40757982D01*
X105213847Y-40735922D01*
X105343428Y-40710147D01*
X105449741Y-40689000D01*
X105690259Y-40689000D01*
X105796572Y-40710147D01*
X105796572Y-40710147D01*
G37*
G36*
X85476572Y-40710147D02*
G01*
X85606153Y-40735922D01*
X85659410Y-40757982D01*
X85828359Y-40827963D01*
X86028342Y-40961587D01*
X86198413Y-41131658D01*
X86332037Y-41331641D01*
X86385953Y-41461806D01*
X86424078Y-41553847D01*
X86424199Y-41554454D01*
X86471000Y-41789741D01*
X86471000Y-42030259D01*
X86424078Y-42266152D01*
X86332037Y-42488359D01*
X86198413Y-42688342D01*
X86028342Y-42858413D01*
X85828359Y-42992037D01*
X85698194Y-43045953D01*
X85606153Y-43084078D01*
X85488205Y-43107539D01*
X85370259Y-43131000D01*
X85129741Y-43131000D01*
X85011795Y-43107539D01*
X84893847Y-43084078D01*
X84801806Y-43045953D01*
X84671641Y-42992037D01*
X84471658Y-42858413D01*
X84301587Y-42688342D01*
X84167963Y-42488359D01*
X84075922Y-42266152D01*
X84029000Y-42030259D01*
X84029000Y-41789741D01*
X84075801Y-41554454D01*
X84075922Y-41553847D01*
X84114047Y-41461806D01*
X84167963Y-41331641D01*
X84301587Y-41131658D01*
X84471658Y-40961587D01*
X84671641Y-40827963D01*
X84840590Y-40757982D01*
X84893847Y-40735922D01*
X85023428Y-40710147D01*
X85129741Y-40689000D01*
X85370259Y-40689000D01*
X85476572Y-40710147D01*
X85476572Y-40710147D01*
G37*
G36*
X90476572Y-40710147D02*
G01*
X90606153Y-40735922D01*
X90659410Y-40757982D01*
X90828359Y-40827963D01*
X91028342Y-40961587D01*
X91198413Y-41131658D01*
X91332037Y-41331641D01*
X91385953Y-41461806D01*
X91424078Y-41553847D01*
X91424199Y-41554454D01*
X91471000Y-41789741D01*
X91471000Y-42030259D01*
X91424078Y-42266152D01*
X91332037Y-42488359D01*
X91198413Y-42688342D01*
X91028342Y-42858413D01*
X90828359Y-42992037D01*
X90698194Y-43045953D01*
X90606153Y-43084078D01*
X90488205Y-43107539D01*
X90370259Y-43131000D01*
X90129741Y-43131000D01*
X90011795Y-43107539D01*
X89893847Y-43084078D01*
X89801806Y-43045953D01*
X89671641Y-42992037D01*
X89471658Y-42858413D01*
X89301587Y-42688342D01*
X89167963Y-42488359D01*
X89075922Y-42266152D01*
X89029000Y-42030259D01*
X89029000Y-41789741D01*
X89075801Y-41554454D01*
X89075922Y-41553847D01*
X89114047Y-41461806D01*
X89167963Y-41331641D01*
X89301587Y-41131658D01*
X89471658Y-40961587D01*
X89671641Y-40827963D01*
X89840590Y-40757982D01*
X89893847Y-40735922D01*
X90023428Y-40710147D01*
X90129741Y-40689000D01*
X90370259Y-40689000D01*
X90476572Y-40710147D01*
X90476572Y-40710147D01*
G37*
G36*
X95476572Y-40710147D02*
G01*
X95606153Y-40735922D01*
X95659410Y-40757982D01*
X95828359Y-40827963D01*
X96028342Y-40961587D01*
X96198413Y-41131658D01*
X96332037Y-41331641D01*
X96385953Y-41461806D01*
X96424078Y-41553847D01*
X96424199Y-41554454D01*
X96471000Y-41789741D01*
X96471000Y-42030259D01*
X96424078Y-42266152D01*
X96332037Y-42488359D01*
X96198413Y-42688342D01*
X96028342Y-42858413D01*
X95828359Y-42992037D01*
X95698194Y-43045953D01*
X95606153Y-43084078D01*
X95488205Y-43107539D01*
X95370259Y-43131000D01*
X95129741Y-43131000D01*
X95011795Y-43107539D01*
X94893847Y-43084078D01*
X94801806Y-43045953D01*
X94671641Y-42992037D01*
X94471658Y-42858413D01*
X94301587Y-42688342D01*
X94167963Y-42488359D01*
X94075922Y-42266152D01*
X94029000Y-42030259D01*
X94029000Y-41789741D01*
X94075801Y-41554454D01*
X94075922Y-41553847D01*
X94114047Y-41461806D01*
X94167963Y-41331641D01*
X94301587Y-41131658D01*
X94471658Y-40961587D01*
X94671641Y-40827963D01*
X94840590Y-40757982D01*
X94893847Y-40735922D01*
X95023428Y-40710147D01*
X95129741Y-40689000D01*
X95370259Y-40689000D01*
X95476572Y-40710147D01*
X95476572Y-40710147D01*
G37*
G36*
X151436572Y-40710147D02*
G01*
X151566153Y-40735922D01*
X151619410Y-40757982D01*
X151788359Y-40827963D01*
X151988342Y-40961587D01*
X152158413Y-41131658D01*
X152292037Y-41331641D01*
X152345953Y-41461806D01*
X152384078Y-41553847D01*
X152384199Y-41554454D01*
X152431000Y-41789741D01*
X152431000Y-42030259D01*
X152384078Y-42266152D01*
X152292037Y-42488359D01*
X152158413Y-42688342D01*
X151988342Y-42858413D01*
X151788359Y-42992037D01*
X151658194Y-43045953D01*
X151566153Y-43084078D01*
X151448205Y-43107539D01*
X151330259Y-43131000D01*
X151089741Y-43131000D01*
X150971795Y-43107539D01*
X150853847Y-43084078D01*
X150761806Y-43045953D01*
X150631641Y-42992037D01*
X150431658Y-42858413D01*
X150261587Y-42688342D01*
X150127963Y-42488359D01*
X150035922Y-42266152D01*
X149989000Y-42030259D01*
X149989000Y-41789741D01*
X150035801Y-41554454D01*
X150035922Y-41553847D01*
X150074047Y-41461806D01*
X150127963Y-41331641D01*
X150261587Y-41131658D01*
X150431658Y-40961587D01*
X150631641Y-40827963D01*
X150800590Y-40757982D01*
X150853847Y-40735922D01*
X150983428Y-40710147D01*
X151089741Y-40689000D01*
X151330259Y-40689000D01*
X151436572Y-40710147D01*
X151436572Y-40710147D01*
G37*
G36*
X146436572Y-40710147D02*
G01*
X146566153Y-40735922D01*
X146619410Y-40757982D01*
X146788359Y-40827963D01*
X146988342Y-40961587D01*
X147158413Y-41131658D01*
X147292037Y-41331641D01*
X147345953Y-41461806D01*
X147384078Y-41553847D01*
X147384199Y-41554454D01*
X147431000Y-41789741D01*
X147431000Y-42030259D01*
X147384078Y-42266152D01*
X147292037Y-42488359D01*
X147158413Y-42688342D01*
X146988342Y-42858413D01*
X146788359Y-42992037D01*
X146658194Y-43045953D01*
X146566153Y-43084078D01*
X146448205Y-43107539D01*
X146330259Y-43131000D01*
X146089741Y-43131000D01*
X145971795Y-43107539D01*
X145853847Y-43084078D01*
X145761806Y-43045953D01*
X145631641Y-42992037D01*
X145431658Y-42858413D01*
X145261587Y-42688342D01*
X145127963Y-42488359D01*
X145035922Y-42266152D01*
X144989000Y-42030259D01*
X144989000Y-41789741D01*
X145035801Y-41554454D01*
X145035922Y-41553847D01*
X145074047Y-41461806D01*
X145127963Y-41331641D01*
X145261587Y-41131658D01*
X145431658Y-40961587D01*
X145631641Y-40827963D01*
X145800590Y-40757982D01*
X145853847Y-40735922D01*
X145983428Y-40710147D01*
X146089741Y-40689000D01*
X146330259Y-40689000D01*
X146436572Y-40710147D01*
X146436572Y-40710147D01*
G37*
G36*
X131116572Y-40710147D02*
G01*
X131246153Y-40735922D01*
X131299410Y-40757982D01*
X131468359Y-40827963D01*
X131668342Y-40961587D01*
X131838413Y-41131658D01*
X131972037Y-41331641D01*
X132025953Y-41461806D01*
X132064078Y-41553847D01*
X132064199Y-41554454D01*
X132111000Y-41789741D01*
X132111000Y-42030259D01*
X132064078Y-42266152D01*
X131972037Y-42488359D01*
X131838413Y-42688342D01*
X131668342Y-42858413D01*
X131468359Y-42992037D01*
X131338194Y-43045953D01*
X131246153Y-43084078D01*
X131128205Y-43107539D01*
X131010259Y-43131000D01*
X130769741Y-43131000D01*
X130651795Y-43107539D01*
X130533847Y-43084078D01*
X130441806Y-43045953D01*
X130311641Y-42992037D01*
X130111658Y-42858413D01*
X129941587Y-42688342D01*
X129807963Y-42488359D01*
X129715922Y-42266152D01*
X129669000Y-42030259D01*
X129669000Y-41789741D01*
X129715801Y-41554454D01*
X129715922Y-41553847D01*
X129754047Y-41461806D01*
X129807963Y-41331641D01*
X129941587Y-41131658D01*
X130111658Y-40961587D01*
X130311641Y-40827963D01*
X130480590Y-40757982D01*
X130533847Y-40735922D01*
X130663428Y-40710147D01*
X130769741Y-40689000D01*
X131010259Y-40689000D01*
X131116572Y-40710147D01*
X131116572Y-40710147D01*
G37*
G36*
X126116572Y-40710147D02*
G01*
X126246153Y-40735922D01*
X126299410Y-40757982D01*
X126468359Y-40827963D01*
X126668342Y-40961587D01*
X126838413Y-41131658D01*
X126972037Y-41331641D01*
X127025953Y-41461806D01*
X127064078Y-41553847D01*
X127064199Y-41554454D01*
X127111000Y-41789741D01*
X127111000Y-42030259D01*
X127064078Y-42266152D01*
X126972037Y-42488359D01*
X126838413Y-42688342D01*
X126668342Y-42858413D01*
X126468359Y-42992037D01*
X126338194Y-43045953D01*
X126246153Y-43084078D01*
X126128205Y-43107539D01*
X126010259Y-43131000D01*
X125769741Y-43131000D01*
X125651795Y-43107539D01*
X125533847Y-43084078D01*
X125441806Y-43045953D01*
X125311641Y-42992037D01*
X125111658Y-42858413D01*
X124941587Y-42688342D01*
X124807963Y-42488359D01*
X124715922Y-42266152D01*
X124669000Y-42030259D01*
X124669000Y-41789741D01*
X124715801Y-41554454D01*
X124715922Y-41553847D01*
X124754047Y-41461806D01*
X124807963Y-41331641D01*
X124941587Y-41131658D01*
X125111658Y-40961587D01*
X125311641Y-40827963D01*
X125480590Y-40757982D01*
X125533847Y-40735922D01*
X125663428Y-40710147D01*
X125769741Y-40689000D01*
X126010259Y-40689000D01*
X126116572Y-40710147D01*
X126116572Y-40710147D01*
G37*
G36*
X79017395Y-39725546D02*
G01*
X79190466Y-39797234D01*
X79190467Y-39797235D01*
X79346227Y-39901310D01*
X79478690Y-40033773D01*
X79494414Y-40057306D01*
X79582766Y-40189534D01*
X79654454Y-40362605D01*
X79691000Y-40546333D01*
X79691000Y-40733667D01*
X79654454Y-40917395D01*
X79582766Y-41090466D01*
X79582765Y-41090467D01*
X79478690Y-41246227D01*
X79346227Y-41378690D01*
X79267818Y-41431081D01*
X79190466Y-41482766D01*
X79017395Y-41554454D01*
X78833667Y-41591000D01*
X78646333Y-41591000D01*
X78462605Y-41554454D01*
X78289534Y-41482766D01*
X78212182Y-41431081D01*
X78133773Y-41378690D01*
X78001310Y-41246227D01*
X77897235Y-41090467D01*
X77897234Y-41090466D01*
X77825546Y-40917395D01*
X77789000Y-40733667D01*
X77789000Y-40546333D01*
X77825546Y-40362605D01*
X77897234Y-40189534D01*
X77985586Y-40057306D01*
X78001310Y-40033773D01*
X78133773Y-39901310D01*
X78289533Y-39797235D01*
X78289534Y-39797234D01*
X78462605Y-39725546D01*
X78646333Y-39689000D01*
X78833667Y-39689000D01*
X79017395Y-39725546D01*
X79017395Y-39725546D01*
G37*
G36*
X77151000Y-41591000D02*
G01*
X75249000Y-41591000D01*
X75249000Y-39689000D01*
X77151000Y-39689000D01*
X77151000Y-41591000D01*
X77151000Y-41591000D01*
G37*
G36*
X70701000Y-40221000D02*
G01*
X68999000Y-40221000D01*
X68999000Y-38519000D01*
X70701000Y-38519000D01*
X70701000Y-40221000D01*
X70701000Y-40221000D01*
G37*
G36*
X76502585Y-30228802D02*
G01*
X76652410Y-30258604D01*
X76934674Y-30375521D01*
X77188705Y-30545259D01*
X77404741Y-30761295D01*
X77574479Y-31015326D01*
X77691396Y-31297590D01*
X77751000Y-31597240D01*
X77751000Y-31902760D01*
X77691396Y-32202410D01*
X77574479Y-32484674D01*
X77404741Y-32738705D01*
X77188705Y-32954741D01*
X76934674Y-33124479D01*
X76652410Y-33241396D01*
X76502585Y-33271198D01*
X76352761Y-33301000D01*
X76047239Y-33301000D01*
X75897415Y-33271198D01*
X75747590Y-33241396D01*
X75465326Y-33124479D01*
X75211295Y-32954741D01*
X74995259Y-32738705D01*
X74825521Y-32484674D01*
X74708604Y-32202410D01*
X74649000Y-31902760D01*
X74649000Y-31597240D01*
X74708604Y-31297590D01*
X74825521Y-31015326D01*
X74995259Y-30761295D01*
X75211295Y-30545259D01*
X75465326Y-30375521D01*
X75747590Y-30258604D01*
X75897415Y-30228802D01*
X76047239Y-30199000D01*
X76352761Y-30199000D01*
X76502585Y-30228802D01*
X76502585Y-30228802D01*
G37*
M02*
