M48
; DRILL file {KiCad (5.1.4)-1} date 11/15/2019 12:49:50 PM
; FORMAT={-:-/ absolute / inch / decimal}
; #@! TF.CreationDate,2019-11-15T12:49:50-05:00
; #@! TF.GenerationSoftware,Kicad,Pcbnew,(5.1.4)-1
; #@! TF.FileFunction,Plated,1,2,PTH
FMAT,2
INCH
T1C0.0157
T2C0.0276
T3C0.0280
T4C0.0295
T5C0.0315
T6C0.0354
T7C0.0394
T8C0.0425
T9C0.0433
T10C0.0472
T11C0.0512
T12C0.0520
T13C0.0630
T14C0.0787
%
G90
G05
T1
X3.5Y-3.3
X4.15Y-2.5
X4.6Y-2.85
X5.0Y-3.0
X5.15Y-2.6
X6.25Y-2.1
X6.75Y-1.9
T2
X4.85Y-2.85
X4.95Y-2.85
T3
X2.437Y-2.7008
X2.5Y-2.5
T4
X2.2Y-4.6
X2.25Y-4.6
X2.3Y-4.6
T5
X2.75Y-1.55
X2.75Y-1.85
X2.6047Y-2.95
X2.9Y-2.95
X2.55Y-4.25
X2.55Y-4.55
X2.65Y-4.25
X2.65Y-4.55
X2.75Y-4.25
X2.75Y-4.55
X2.85Y-4.25
X2.85Y-4.55
T6
X3.0Y-1.6
X3.1Y-1.6
T7
X3.65Y-4.0094
X3.65Y-4.6
X5.9Y-4.0
X5.9Y-4.5906
X5.2Y-4.0
X5.2Y-4.5906
X4.4Y-4.0
X4.4Y-4.5906
T8
X3.7Y-3.0
X3.75Y-2.8
X3.8Y-3.0
X3.85Y-2.8
X3.9Y-3.0
X3.95Y-2.8
X4.0Y-3.0
X4.05Y-2.8
X4.1Y-3.0
X4.15Y-2.8
X4.2Y-3.0
X4.25Y-2.8
X4.3Y-3.0
X4.35Y-2.8
X4.4Y-3.0
X5.35Y-3.0
X5.4Y-2.8
X5.45Y-3.0
X5.5Y-2.8
X5.55Y-3.0
X5.6Y-2.8
X5.65Y-3.0
X5.7Y-2.8
X5.75Y-3.0
X5.8Y-2.8
X5.85Y-3.0
X5.9Y-2.8
X5.95Y-3.0
X6.0Y-2.8
X6.05Y-3.0
T9
X2.05Y-4.25
X2.15Y-4.25
X2.25Y-4.25
T10
X3.65Y-3.55
X3.65Y-3.7469
X3.15Y-4.35
X3.15Y-4.45
X3.15Y-4.55
X2.15Y-2.55
X2.15Y-2.7469
X2.6Y-3.9
X2.7969Y-3.9
X4.4Y-3.55
X4.4Y-3.7469
X5.9Y-3.55
X5.9Y-3.7469
X2.8Y-3.2031
X2.8Y-3.4
X3.15Y-3.8
X3.15Y-3.9
X3.15Y-4.0
X2.45Y-3.2531
X2.45Y-3.45
X2.05Y-3.9
X2.2469Y-3.9
X2.2531Y-4.95
X2.45Y-4.95
X5.2Y-3.55
X5.2Y-3.7469
X2.8Y-4.95
X2.9969Y-4.95
T11
X4.9563Y-1.65
X5.1531Y-1.65
X5.35Y-1.65
X5.7563Y-1.65
X5.9531Y-1.65
X6.15Y-1.65
X3.3563Y-1.65
X3.5531Y-1.65
X3.75Y-1.65
X4.1563Y-1.65
X4.3531Y-1.65
X4.55Y-1.65
T12
X5.9Y-5.1
X6.0969Y-5.1
X5.2Y-5.1
X5.3969Y-5.1
X3.65Y-5.1
X3.8469Y-5.1
X4.4Y-5.1
X4.5969Y-5.1
T13
X2.75Y-2.45
X2.75Y-2.75
T14
X6.95Y-1.55
X7.0287Y-1.6445
X7.0287Y-1.861
X6.55Y-1.55
X6.6287Y-1.6445
X6.6287Y-1.861
T7
G00X2.215Y-1.8925
M15
G01X2.215Y-1.9713
M16
G05
G00X2.4394Y-1.8138
M15
G01X2.3606Y-1.8138
M16
G05
G00X2.4394Y-2.05
M15
G01X2.3606Y-2.05
M16
G05
T0
M30
