G04 #@! TF.GenerationSoftware,KiCad,Pcbnew,(5.1.4)-1*
G04 #@! TF.CreationDate,2019-11-15T12:49:53-05:00*
G04 #@! TF.ProjectId,ffb,6666622e-6b69-4636-9164-5f7063625858,rev?*
G04 #@! TF.SameCoordinates,Original*
G04 #@! TF.FileFunction,Legend,Bot*
G04 #@! TF.FilePolarity,Positive*
%FSLAX46Y46*%
G04 Gerber Fmt 4.6, Leading zero omitted, Abs format (unit mm)*
G04 Created by KiCad (PCBNEW (5.1.4)-1) date 2019-11-15 12:49:53*
%MOMM*%
%LPD*%
G04 APERTURE LIST*
%ADD10C,0.300000*%
%ADD11C,0.150000*%
G04 APERTURE END LIST*
D10*
X142952857Y-82998571D02*
X142095714Y-82998571D01*
X142524285Y-84498571D02*
X142524285Y-82998571D01*
X141595714Y-84498571D02*
X141595714Y-83498571D01*
X141595714Y-83784285D02*
X141524285Y-83641428D01*
X141452857Y-83570000D01*
X141310000Y-83498571D01*
X141167142Y-83498571D01*
X140024285Y-83498571D02*
X140024285Y-84498571D01*
X140667142Y-83498571D02*
X140667142Y-84284285D01*
X140595714Y-84427142D01*
X140452857Y-84498571D01*
X140238571Y-84498571D01*
X140095714Y-84427142D01*
X140024285Y-84355714D01*
X139381428Y-84427142D02*
X139238571Y-84498571D01*
X138952857Y-84498571D01*
X138810000Y-84427142D01*
X138738571Y-84284285D01*
X138738571Y-84212857D01*
X138810000Y-84070000D01*
X138952857Y-83998571D01*
X139167142Y-83998571D01*
X139310000Y-83927142D01*
X139381428Y-83784285D01*
X139381428Y-83712857D01*
X139310000Y-83570000D01*
X139167142Y-83498571D01*
X138952857Y-83498571D01*
X138810000Y-83570000D01*
X138310000Y-83498571D02*
X137738571Y-83498571D01*
X138095714Y-82998571D02*
X138095714Y-84284285D01*
X138024285Y-84427142D01*
X137881428Y-84498571D01*
X137738571Y-84498571D01*
X136238571Y-83498571D02*
X135881428Y-84498571D01*
X135524285Y-83498571D02*
X135881428Y-84498571D01*
X136024285Y-84855714D01*
X136095714Y-84927142D01*
X136238571Y-84998571D01*
X134738571Y-84498571D02*
X134881428Y-84427142D01*
X134952857Y-84355714D01*
X135024285Y-84212857D01*
X135024285Y-83784285D01*
X134952857Y-83641428D01*
X134881428Y-83570000D01*
X134738571Y-83498571D01*
X134524285Y-83498571D01*
X134381428Y-83570000D01*
X134310000Y-83641428D01*
X134238571Y-83784285D01*
X134238571Y-84212857D01*
X134310000Y-84355714D01*
X134381428Y-84427142D01*
X134524285Y-84498571D01*
X134738571Y-84498571D01*
X132952857Y-83498571D02*
X132952857Y-84498571D01*
X133595714Y-83498571D02*
X133595714Y-84284285D01*
X133524285Y-84427142D01*
X133381428Y-84498571D01*
X133167142Y-84498571D01*
X133024285Y-84427142D01*
X132952857Y-84355714D01*
X132238571Y-84498571D02*
X132238571Y-83498571D01*
X132238571Y-83784285D02*
X132167142Y-83641428D01*
X132095714Y-83570000D01*
X131952857Y-83498571D01*
X131810000Y-83498571D01*
X130381428Y-82998571D02*
X129524285Y-82998571D01*
X129952857Y-84498571D02*
X129952857Y-82998571D01*
X128452857Y-84427142D02*
X128595714Y-84498571D01*
X128881428Y-84498571D01*
X129024285Y-84427142D01*
X129095714Y-84284285D01*
X129095714Y-83712857D01*
X129024285Y-83570000D01*
X128881428Y-83498571D01*
X128595714Y-83498571D01*
X128452857Y-83570000D01*
X128381428Y-83712857D01*
X128381428Y-83855714D01*
X129095714Y-83998571D01*
X127095714Y-84427142D02*
X127238571Y-84498571D01*
X127524285Y-84498571D01*
X127667142Y-84427142D01*
X127738571Y-84355714D01*
X127810000Y-84212857D01*
X127810000Y-83784285D01*
X127738571Y-83641428D01*
X127667142Y-83570000D01*
X127524285Y-83498571D01*
X127238571Y-83498571D01*
X127095714Y-83570000D01*
X126452857Y-84498571D02*
X126452857Y-82998571D01*
X125810000Y-84498571D02*
X125810000Y-83712857D01*
X125881428Y-83570000D01*
X126024285Y-83498571D01*
X126238571Y-83498571D01*
X126381428Y-83570000D01*
X126452857Y-83641428D01*
X125095714Y-83498571D02*
X125095714Y-84498571D01*
X125095714Y-83641428D02*
X125024285Y-83570000D01*
X124881428Y-83498571D01*
X124667142Y-83498571D01*
X124524285Y-83570000D01*
X124452857Y-83712857D01*
X124452857Y-84498571D01*
X123524285Y-84498571D02*
X123667142Y-84427142D01*
X123738571Y-84355714D01*
X123810000Y-84212857D01*
X123810000Y-83784285D01*
X123738571Y-83641428D01*
X123667142Y-83570000D01*
X123524285Y-83498571D01*
X123310000Y-83498571D01*
X123167142Y-83570000D01*
X123095714Y-83641428D01*
X123024285Y-83784285D01*
X123024285Y-84212857D01*
X123095714Y-84355714D01*
X123167142Y-84427142D01*
X123310000Y-84498571D01*
X123524285Y-84498571D01*
X122167142Y-84498571D02*
X122310000Y-84427142D01*
X122381428Y-84284285D01*
X122381428Y-82998571D01*
X120952857Y-83498571D02*
X120952857Y-84498571D01*
X121595714Y-83498571D02*
X121595714Y-84284285D01*
X121524285Y-84427142D01*
X121381428Y-84498571D01*
X121167142Y-84498571D01*
X121024285Y-84427142D01*
X120952857Y-84355714D01*
X120310000Y-84427142D02*
X120167142Y-84498571D01*
X119881428Y-84498571D01*
X119738571Y-84427142D01*
X119667142Y-84284285D01*
X119667142Y-84212857D01*
X119738571Y-84070000D01*
X119881428Y-83998571D01*
X120095714Y-83998571D01*
X120238571Y-83927142D01*
X120310000Y-83784285D01*
X120310000Y-83712857D01*
X120238571Y-83570000D01*
X120095714Y-83498571D01*
X119881428Y-83498571D01*
X119738571Y-83570000D01*
X119238571Y-83498571D02*
X118667142Y-83498571D01*
X119024285Y-82998571D02*
X119024285Y-84284285D01*
X118952857Y-84427142D01*
X118810000Y-84498571D01*
X118667142Y-84498571D01*
D11*
X178252380Y-81336666D02*
X177252380Y-81336666D01*
X177252380Y-81574761D01*
X177300000Y-81717619D01*
X177395238Y-81812857D01*
X177490476Y-81860476D01*
X177680952Y-81908095D01*
X177823809Y-81908095D01*
X178014285Y-81860476D01*
X178109523Y-81812857D01*
X178204761Y-81717619D01*
X178252380Y-81574761D01*
X178252380Y-81336666D01*
X178204761Y-82717619D02*
X178252380Y-82622380D01*
X178252380Y-82431904D01*
X178204761Y-82336666D01*
X178109523Y-82289047D01*
X177728571Y-82289047D01*
X177633333Y-82336666D01*
X177585714Y-82431904D01*
X177585714Y-82622380D01*
X177633333Y-82717619D01*
X177728571Y-82765238D01*
X177823809Y-82765238D01*
X177919047Y-82289047D01*
X178204761Y-83146190D02*
X178252380Y-83241428D01*
X178252380Y-83431904D01*
X178204761Y-83527142D01*
X178109523Y-83574761D01*
X178061904Y-83574761D01*
X177966666Y-83527142D01*
X177919047Y-83431904D01*
X177919047Y-83289047D01*
X177871428Y-83193809D01*
X177776190Y-83146190D01*
X177728571Y-83146190D01*
X177633333Y-83193809D01*
X177585714Y-83289047D01*
X177585714Y-83431904D01*
X177633333Y-83527142D01*
X178252380Y-84003333D02*
X177585714Y-84003333D01*
X177252380Y-84003333D02*
X177300000Y-83955714D01*
X177347619Y-84003333D01*
X177300000Y-84050952D01*
X177252380Y-84003333D01*
X177347619Y-84003333D01*
X177585714Y-84908095D02*
X178395238Y-84908095D01*
X178490476Y-84860476D01*
X178538095Y-84812857D01*
X178585714Y-84717619D01*
X178585714Y-84574761D01*
X178538095Y-84479523D01*
X178204761Y-84908095D02*
X178252380Y-84812857D01*
X178252380Y-84622380D01*
X178204761Y-84527142D01*
X178157142Y-84479523D01*
X178061904Y-84431904D01*
X177776190Y-84431904D01*
X177680952Y-84479523D01*
X177633333Y-84527142D01*
X177585714Y-84622380D01*
X177585714Y-84812857D01*
X177633333Y-84908095D01*
X177585714Y-85384285D02*
X178252380Y-85384285D01*
X177680952Y-85384285D02*
X177633333Y-85431904D01*
X177585714Y-85527142D01*
X177585714Y-85670000D01*
X177633333Y-85765238D01*
X177728571Y-85812857D01*
X178252380Y-85812857D01*
X178204761Y-86670000D02*
X178252380Y-86574761D01*
X178252380Y-86384285D01*
X178204761Y-86289047D01*
X178109523Y-86241428D01*
X177728571Y-86241428D01*
X177633333Y-86289047D01*
X177585714Y-86384285D01*
X177585714Y-86574761D01*
X177633333Y-86670000D01*
X177728571Y-86717619D01*
X177823809Y-86717619D01*
X177919047Y-86241428D01*
X178252380Y-87574761D02*
X177252380Y-87574761D01*
X178204761Y-87574761D02*
X178252380Y-87479523D01*
X178252380Y-87289047D01*
X178204761Y-87193809D01*
X178157142Y-87146190D01*
X178061904Y-87098571D01*
X177776190Y-87098571D01*
X177680952Y-87146190D01*
X177633333Y-87193809D01*
X177585714Y-87289047D01*
X177585714Y-87479523D01*
X177633333Y-87574761D01*
X178252380Y-88812857D02*
X177252380Y-88812857D01*
X177633333Y-88812857D02*
X177585714Y-88908095D01*
X177585714Y-89098571D01*
X177633333Y-89193809D01*
X177680952Y-89241428D01*
X177776190Y-89289047D01*
X178061904Y-89289047D01*
X178157142Y-89241428D01*
X178204761Y-89193809D01*
X178252380Y-89098571D01*
X178252380Y-88908095D01*
X178204761Y-88812857D01*
X177585714Y-89622380D02*
X178252380Y-89860476D01*
X177585714Y-90098571D02*
X178252380Y-89860476D01*
X178490476Y-89765238D01*
X178538095Y-89717619D01*
X178585714Y-89622380D01*
X177728571Y-91574761D02*
X177728571Y-91241428D01*
X178252380Y-91241428D02*
X177252380Y-91241428D01*
X177252380Y-91717619D01*
X178252380Y-92527142D02*
X177728571Y-92527142D01*
X177633333Y-92479523D01*
X177585714Y-92384285D01*
X177585714Y-92193809D01*
X177633333Y-92098571D01*
X178204761Y-92527142D02*
X178252380Y-92431904D01*
X178252380Y-92193809D01*
X178204761Y-92098571D01*
X178109523Y-92050952D01*
X178014285Y-92050952D01*
X177919047Y-92098571D01*
X177871428Y-92193809D01*
X177871428Y-92431904D01*
X177823809Y-92527142D01*
X177585714Y-92860476D02*
X177585714Y-93241428D01*
X177252380Y-93003333D02*
X178109523Y-93003333D01*
X178204761Y-93050952D01*
X178252380Y-93146190D01*
X178252380Y-93241428D01*
X177585714Y-93431904D02*
X177585714Y-93812857D01*
X177252380Y-93574761D02*
X178109523Y-93574761D01*
X178204761Y-93622380D01*
X178252380Y-93717619D01*
X178252380Y-93812857D01*
X177585714Y-94050952D02*
X178252380Y-94289047D01*
X177585714Y-94527142D02*
X178252380Y-94289047D01*
X178490476Y-94193809D01*
X178538095Y-94146190D01*
X178585714Y-94050952D01*
X177347619Y-95622380D02*
X177300000Y-95670000D01*
X177252380Y-95765238D01*
X177252380Y-96003333D01*
X177300000Y-96098571D01*
X177347619Y-96146190D01*
X177442857Y-96193809D01*
X177538095Y-96193809D01*
X177680952Y-96146190D01*
X178252380Y-95574761D01*
X178252380Y-96193809D01*
X177252380Y-96812857D02*
X177252380Y-96908095D01*
X177300000Y-97003333D01*
X177347619Y-97050952D01*
X177442857Y-97098571D01*
X177633333Y-97146190D01*
X177871428Y-97146190D01*
X178061904Y-97098571D01*
X178157142Y-97050952D01*
X178204761Y-97003333D01*
X178252380Y-96908095D01*
X178252380Y-96812857D01*
X178204761Y-96717619D01*
X178157142Y-96670000D01*
X178061904Y-96622380D01*
X177871428Y-96574761D01*
X177633333Y-96574761D01*
X177442857Y-96622380D01*
X177347619Y-96670000D01*
X177300000Y-96717619D01*
X177252380Y-96812857D01*
X178252380Y-98098571D02*
X178252380Y-97527142D01*
X178252380Y-97812857D02*
X177252380Y-97812857D01*
X177395238Y-97717619D01*
X177490476Y-97622380D01*
X177538095Y-97527142D01*
X178252380Y-98574761D02*
X178252380Y-98765238D01*
X178204761Y-98860476D01*
X178157142Y-98908095D01*
X178014285Y-99003333D01*
X177823809Y-99050952D01*
X177442857Y-99050952D01*
X177347619Y-99003333D01*
X177300000Y-98955714D01*
X177252380Y-98860476D01*
X177252380Y-98670000D01*
X177300000Y-98574761D01*
X177347619Y-98527142D01*
X177442857Y-98479523D01*
X177680952Y-98479523D01*
X177776190Y-98527142D01*
X177823809Y-98574761D01*
X177871428Y-98670000D01*
X177871428Y-98860476D01*
X177823809Y-98955714D01*
X177776190Y-99003333D01*
X177680952Y-99050952D01*
X175712380Y-78098571D02*
X175712380Y-77527142D01*
X175712380Y-77812857D02*
X174712380Y-77812857D01*
X174855238Y-77717619D01*
X174950476Y-77622380D01*
X174998095Y-77527142D01*
X174712380Y-79003333D02*
X174712380Y-78527142D01*
X175188571Y-78479523D01*
X175140952Y-78527142D01*
X175093333Y-78622380D01*
X175093333Y-78860476D01*
X175140952Y-78955714D01*
X175188571Y-79003333D01*
X175283809Y-79050952D01*
X175521904Y-79050952D01*
X175617142Y-79003333D01*
X175664761Y-78955714D01*
X175712380Y-78860476D01*
X175712380Y-78622380D01*
X175664761Y-78527142D01*
X175617142Y-78479523D01*
X174712380Y-79384285D02*
X175712380Y-79622380D01*
X174998095Y-79812857D01*
X175712380Y-80003333D01*
X174712380Y-80241428D01*
X175712380Y-80527142D02*
X175045714Y-81050952D01*
X175045714Y-80527142D02*
X175712380Y-81050952D01*
X175045714Y-81860476D02*
X175712380Y-81860476D01*
X174664761Y-81622380D02*
X175379047Y-81384285D01*
X175379047Y-82003333D01*
X175188571Y-83479523D02*
X175236190Y-83622380D01*
X175283809Y-83670000D01*
X175379047Y-83717619D01*
X175521904Y-83717619D01*
X175617142Y-83670000D01*
X175664761Y-83622380D01*
X175712380Y-83527142D01*
X175712380Y-83146190D01*
X174712380Y-83146190D01*
X174712380Y-83479523D01*
X174760000Y-83574761D01*
X174807619Y-83622380D01*
X174902857Y-83670000D01*
X174998095Y-83670000D01*
X175093333Y-83622380D01*
X175140952Y-83574761D01*
X175188571Y-83479523D01*
X175188571Y-83146190D01*
X175712380Y-84574761D02*
X175188571Y-84574761D01*
X175093333Y-84527142D01*
X175045714Y-84431904D01*
X175045714Y-84241428D01*
X175093333Y-84146190D01*
X175664761Y-84574761D02*
X175712380Y-84479523D01*
X175712380Y-84241428D01*
X175664761Y-84146190D01*
X175569523Y-84098571D01*
X175474285Y-84098571D01*
X175379047Y-84146190D01*
X175331428Y-84241428D01*
X175331428Y-84479523D01*
X175283809Y-84574761D01*
X175664761Y-85003333D02*
X175712380Y-85098571D01*
X175712380Y-85289047D01*
X175664761Y-85384285D01*
X175569523Y-85431904D01*
X175521904Y-85431904D01*
X175426666Y-85384285D01*
X175379047Y-85289047D01*
X175379047Y-85146190D01*
X175331428Y-85050952D01*
X175236190Y-85003333D01*
X175188571Y-85003333D01*
X175093333Y-85050952D01*
X175045714Y-85146190D01*
X175045714Y-85289047D01*
X175093333Y-85384285D01*
X175664761Y-85812857D02*
X175712380Y-85908095D01*
X175712380Y-86098571D01*
X175664761Y-86193809D01*
X175569523Y-86241428D01*
X175521904Y-86241428D01*
X175426666Y-86193809D01*
X175379047Y-86098571D01*
X175379047Y-85955714D01*
X175331428Y-85860476D01*
X175236190Y-85812857D01*
X175188571Y-85812857D01*
X175093333Y-85860476D01*
X175045714Y-85955714D01*
X175045714Y-86098571D01*
X175093333Y-86193809D01*
X174712380Y-87289047D02*
X174712380Y-87860476D01*
X175712380Y-87574761D02*
X174712380Y-87574761D01*
X175712380Y-88193809D02*
X175045714Y-88193809D01*
X175236190Y-88193809D02*
X175140952Y-88241428D01*
X175093333Y-88289047D01*
X175045714Y-88384285D01*
X175045714Y-88479523D01*
X175712380Y-89241428D02*
X175188571Y-89241428D01*
X175093333Y-89193809D01*
X175045714Y-89098571D01*
X175045714Y-88908095D01*
X175093333Y-88812857D01*
X175664761Y-89241428D02*
X175712380Y-89146190D01*
X175712380Y-88908095D01*
X175664761Y-88812857D01*
X175569523Y-88765238D01*
X175474285Y-88765238D01*
X175379047Y-88812857D01*
X175331428Y-88908095D01*
X175331428Y-89146190D01*
X175283809Y-89241428D01*
X175045714Y-89717619D02*
X175712380Y-89717619D01*
X175140952Y-89717619D02*
X175093333Y-89765238D01*
X175045714Y-89860476D01*
X175045714Y-90003333D01*
X175093333Y-90098571D01*
X175188571Y-90146190D01*
X175712380Y-90146190D01*
X175664761Y-90574761D02*
X175712380Y-90670000D01*
X175712380Y-90860476D01*
X175664761Y-90955714D01*
X175569523Y-91003333D01*
X175521904Y-91003333D01*
X175426666Y-90955714D01*
X175379047Y-90860476D01*
X175379047Y-90717619D01*
X175331428Y-90622380D01*
X175236190Y-90574761D01*
X175188571Y-90574761D01*
X175093333Y-90622380D01*
X175045714Y-90717619D01*
X175045714Y-90860476D01*
X175093333Y-90955714D01*
X175712380Y-91860476D02*
X174712380Y-91860476D01*
X175664761Y-91860476D02*
X175712380Y-91765238D01*
X175712380Y-91574761D01*
X175664761Y-91479523D01*
X175617142Y-91431904D01*
X175521904Y-91384285D01*
X175236190Y-91384285D01*
X175140952Y-91431904D01*
X175093333Y-91479523D01*
X175045714Y-91574761D01*
X175045714Y-91765238D01*
X175093333Y-91860476D01*
X175045714Y-92765238D02*
X175712380Y-92765238D01*
X175045714Y-92336666D02*
X175569523Y-92336666D01*
X175664761Y-92384285D01*
X175712380Y-92479523D01*
X175712380Y-92622380D01*
X175664761Y-92717619D01*
X175617142Y-92765238D01*
X175664761Y-93670000D02*
X175712380Y-93574761D01*
X175712380Y-93384285D01*
X175664761Y-93289047D01*
X175617142Y-93241428D01*
X175521904Y-93193809D01*
X175236190Y-93193809D01*
X175140952Y-93241428D01*
X175093333Y-93289047D01*
X175045714Y-93384285D01*
X175045714Y-93574761D01*
X175093333Y-93670000D01*
X175664761Y-94479523D02*
X175712380Y-94384285D01*
X175712380Y-94193809D01*
X175664761Y-94098571D01*
X175569523Y-94050952D01*
X175188571Y-94050952D01*
X175093333Y-94098571D01*
X175045714Y-94193809D01*
X175045714Y-94384285D01*
X175093333Y-94479523D01*
X175188571Y-94527142D01*
X175283809Y-94527142D01*
X175379047Y-94050952D01*
X175712380Y-94955714D02*
X175045714Y-94955714D01*
X175236190Y-94955714D02*
X175140952Y-95003333D01*
X175093333Y-95050952D01*
X175045714Y-95146190D01*
X175045714Y-95241428D01*
X175712380Y-96336666D02*
X174712380Y-96336666D01*
X174712380Y-96574761D01*
X174760000Y-96717619D01*
X174855238Y-96812857D01*
X174950476Y-96860476D01*
X175140952Y-96908095D01*
X175283809Y-96908095D01*
X175474285Y-96860476D01*
X175569523Y-96812857D01*
X175664761Y-96717619D01*
X175712380Y-96574761D01*
X175712380Y-96336666D01*
X175712380Y-97336666D02*
X175045714Y-97336666D01*
X175236190Y-97336666D02*
X175140952Y-97384285D01*
X175093333Y-97431904D01*
X175045714Y-97527142D01*
X175045714Y-97622380D01*
X175712380Y-97955714D02*
X175045714Y-97955714D01*
X174712380Y-97955714D02*
X174760000Y-97908095D01*
X174807619Y-97955714D01*
X174760000Y-98003333D01*
X174712380Y-97955714D01*
X174807619Y-97955714D01*
X175045714Y-98336666D02*
X175712380Y-98574761D01*
X175045714Y-98812857D01*
X175664761Y-99574761D02*
X175712380Y-99479523D01*
X175712380Y-99289047D01*
X175664761Y-99193809D01*
X175569523Y-99146190D01*
X175188571Y-99146190D01*
X175093333Y-99193809D01*
X175045714Y-99289047D01*
X175045714Y-99479523D01*
X175093333Y-99574761D01*
X175188571Y-99622380D01*
X175283809Y-99622380D01*
X175379047Y-99146190D01*
X175712380Y-100050952D02*
X175045714Y-100050952D01*
X175236190Y-100050952D02*
X175140952Y-100098571D01*
X175093333Y-100146190D01*
X175045714Y-100241428D01*
X175045714Y-100336666D01*
X174712380Y-101289047D02*
X175712380Y-101622380D01*
X174712380Y-101955714D01*
X175712380Y-102812857D02*
X175712380Y-102241428D01*
X175712380Y-102527142D02*
X174712380Y-102527142D01*
X174855238Y-102431904D01*
X174950476Y-102336666D01*
X174998095Y-102241428D01*
M02*
